<svg width="44" height="31" viewBox="0 0 44 31" fill="none" xmlns="http://www.w3.org/2000/svg">
<path d="M14.8996 3.89062C14.8329 3.89062 14.7496 3.80729 14.6496 3.64062V3.09062H15.6496L15.6996 2.99063C15.7329 2.72396 15.7496 2.54062 15.7496 2.44062C15.8496 1.67396 16.2663 1.15729 16.9996 0.890625L17.3496 0.740625H17.9496C19.0496 1.07396 19.6163 1.72396 19.6496 2.69062L19.6996 3.09062H20.7996V3.84062L20.6996 3.89062H14.8996ZM30.4496 24.7906C30.1163 25.824 30.1913 26.8323 30.6746 27.8156C31.1579 28.799 31.9163 29.474 32.9496 29.8406C33.0829 29.9073 33.3163 29.974 33.6496 30.0406L33.9496 30.1406H34.8496L35.3996 29.9906C36.2663 29.7573 36.9829 29.2823 37.5496 28.5656C38.1163 27.849 38.4163 27.049 38.4496 26.1656C38.4829 25.2823 38.2246 24.4656 37.6746 23.7156C37.1246 22.9656 36.4163 22.4573 35.5496 22.1906C34.4829 21.8906 33.4579 21.9906 32.4746 22.4906C31.4913 22.9906 30.8163 23.7573 30.4496 24.7906ZM32.3496 26.1406C32.3496 25.574 32.5496 25.099 32.9496 24.7156C33.3496 24.3323 33.8163 24.1406 34.3496 24.1406C34.8829 24.1406 35.3496 24.3323 35.7496 24.7156C36.1496 25.099 36.3496 25.5573 36.3496 26.0906C36.3496 26.624 36.1579 27.0823 35.7746 27.4656C35.3913 27.849 34.9329 28.0406 34.3996 28.0406C33.8663 28.0406 33.3913 27.849 32.9746 27.4656C32.5579 27.0823 32.3496 26.6406 32.3496 26.1406ZM6.44961 26.0906C6.44961 27.024 6.72461 27.8573 7.27461 28.5906C7.82461 29.324 8.56628 29.8073 9.49961 30.0406C9.56628 30.0406 9.66628 30.074 9.79961 30.1406H11.3496L11.5996 30.0406C12.0329 29.874 12.3496 29.7406 12.5496 29.6406C12.9163 29.4406 13.2163 29.224 13.4496 28.9906C14.1163 28.3573 14.5079 27.5906 14.6246 26.6906C14.7413 25.7906 14.5746 24.9323 14.1246 24.1156C13.6746 23.299 13.0246 22.7156 12.1746 22.3656C11.3246 22.0156 10.4496 21.9573 9.54961 22.1906C8.64961 22.424 7.90794 22.9073 7.32461 23.6406C6.74128 24.374 6.44961 25.1906 6.44961 26.0906ZM8.54961 26.1406C8.54961 25.6073 8.74128 25.149 9.12461 24.7656C9.50794 24.3823 9.98294 24.1906 10.5496 24.1906C11.1163 24.1906 11.5913 24.3823 11.9746 24.7656C12.3579 25.149 12.5496 25.6073 12.5496 26.1406C12.5496 26.674 12.3496 27.124 11.9496 27.4906C11.5496 27.8573 11.0746 28.0406 10.5246 28.0406C9.97461 28.0406 9.50794 27.849 9.12461 27.4656C8.74128 27.0823 8.54961 26.6406 8.54961 26.1406ZM43.8496 15.0406C43.8163 13.1406 43.7996 10.3406 43.7996 6.64062C43.7996 6.17396 43.6329 5.78229 43.2996 5.46562C42.9663 5.14896 42.5663 4.99063 42.0996 4.99063L9.24961 5.04062C8.24961 5.04062 7.51628 5.49063 7.04961 6.39062C6.74961 6.92396 6.49961 7.47396 6.29961 8.04062L3.74961 13.9906C3.71628 14.124 3.65794 14.2406 3.57461 14.3406C3.49128 14.4406 3.41628 14.5073 3.34961 14.5406C2.31628 14.9073 1.66628 15.6573 1.39961 16.7906C0.999609 18.724 0.716276 20.1906 0.549609 21.1906L0.0996094 23.8906V24.8906C0.466276 25.624 0.966276 26.0073 1.59961 26.0406L4.64961 26.1406C4.81628 26.1406 4.94128 26.099 5.02461 26.0156C5.10794 25.9323 5.16628 25.7906 5.19961 25.5906C5.29961 24.2906 5.85794 23.1823 6.87461 22.2656C7.89128 21.349 9.04961 20.874 10.3496 20.8406C11.7829 20.774 13.0246 21.1906 14.0746 22.0906C15.1246 22.9906 15.7329 24.1573 15.8996 25.5906C15.9663 25.8573 16.0246 26.0156 16.0746 26.0656C16.1246 26.1156 16.2996 26.1406 16.5996 26.1406L28.4496 26.0906C28.6496 26.0906 28.7913 26.049 28.8746 25.9656C28.9579 25.8823 28.9996 25.7406 28.9996 25.5406C29.1329 24.3406 29.6746 23.2823 30.6246 22.3656C31.5746 21.449 32.6496 20.9406 33.8496 20.8406C35.3163 20.7073 36.5996 21.0906 37.6996 21.9906C38.6996 22.7573 39.3329 23.7406 39.5996 24.9406C39.6329 25.1073 39.6829 25.3573 39.7496 25.6906L39.8496 26.1906L42.6496 26.0406C43.0829 26.0073 43.3996 25.774 43.5996 25.3406C43.6996 25.2406 43.7829 25.124 43.8496 24.9906V15.0406ZM14.4996 13.7906C14.4996 13.9906 14.4579 14.124 14.3746 14.1906C14.2913 14.2573 14.1663 14.2906 13.9996 14.2906C12.4329 14.2573 10.0829 14.2406 6.94961 14.2406H5.74961C5.81628 14.1073 5.84961 13.9906 5.84961 13.8906L8.64961 7.04062C8.74961 6.80729 8.93294 6.69062 9.19961 6.69062H10.7996C12.2329 6.72396 13.2996 6.72396 13.9996 6.69062C14.1996 6.69062 14.3329 6.72396 14.3996 6.79062C14.4663 6.85729 14.4829 6.99063 14.4496 7.19062C14.4496 10.124 14.4663 12.324 14.4996 13.7906ZM32.9996 14.6906H29.1496V18.9906C28.6496 19.0906 28.1496 19.1406 27.6496 19.1406C27.1496 19.1406 26.6663 19.0906 26.1996 18.9906V14.6906H22.2996C22.1996 14.224 22.1496 13.749 22.1496 13.2656C22.1496 12.7823 22.1996 12.2906 22.2996 11.7906H26.1996V7.54062C26.6663 7.44062 27.1496 7.39062 27.6496 7.39062C28.1496 7.39062 28.6496 7.44062 29.1496 7.54062V11.7906H32.9996C33.0996 12.2906 33.1496 12.7823 33.1496 13.2656C33.1496 13.749 33.0996 14.224 32.9996 14.6906Z" fill="#74EED8"/>
</svg>
