<svg width="60" height="51" viewBox="0 0 60 51" fill="none" xmlns="http://www.w3.org/2000/svg">
<g clip-path="url(#clip0_2183_20952)">
<g clip-path="url(#clip1_2183_20952)">
<path d="M16.4863 44.062H43.4954C44.9889 44.064 46.4222 43.4732 47.4805 42.4194C48.5388 41.3656 49.1357 39.9349 49.1401 38.4414V12.2075C49.1355 10.7141 48.5386 9.28346 47.4803 8.2297C46.422 7.17593 44.9889 6.58511 43.4954 6.58692H16.487C14.9935 6.58495 13.5602 7.17572 12.5019 8.22952C11.4436 9.28332 10.8467 10.714 10.8423 12.2075V38.4445C10.8469 39.938 11.4438 41.3686 12.5021 42.4223C13.5604 43.4761 14.9935 44.0669 16.487 44.0651L16.4863 44.062ZM11.909 12.2063C11.9129 10.9954 12.3972 9.8355 13.2555 8.98134C14.1138 8.12718 15.2761 7.64854 16.487 7.65051H43.496C44.707 7.64854 45.8692 8.12718 46.7275 8.98134C47.5858 9.8355 48.0701 10.9954 48.074 12.2063V38.4433C48.0701 39.6542 47.5858 40.8141 46.7275 41.6682C45.8692 42.5224 44.707 43.001 43.496 42.9991H16.4863C15.2754 43.001 14.1132 42.5224 13.2549 41.6682C12.3966 40.8141 11.9123 39.6542 11.9083 38.4433L11.909 12.2063Z" fill="black"/>
<path d="M16.8779 33.1398H43.1069C43.17 33.1392 43.2324 33.1262 43.2905 33.1016C43.3486 33.0769 43.4013 33.041 43.4455 32.996C43.4897 32.951 43.5246 32.8977 43.5482 32.8392C43.5719 32.7806 43.5837 32.718 43.5831 32.6549V12.6333C43.5837 12.5702 43.5719 12.5076 43.5482 12.4491C43.5246 12.3905 43.4897 12.3373 43.4455 12.2922C43.4013 12.2472 43.3486 12.2113 43.2905 12.1867C43.2324 12.162 43.17 12.149 43.1069 12.1484H16.8786C16.8155 12.149 16.7531 12.162 16.695 12.1867C16.6369 12.2113 16.5843 12.2472 16.54 12.2922C16.4958 12.3373 16.4609 12.3905 16.4373 12.4491C16.4137 12.5076 16.4018 12.5702 16.4024 12.6333V32.6549C16.4018 32.718 16.4137 32.7806 16.4373 32.8392C16.4609 32.8977 16.4958 32.951 16.54 32.996C16.5843 33.041 16.6369 33.0769 16.695 33.1016C16.7531 33.1262 16.8155 33.1392 16.8786 33.1398H16.8779ZM17.3511 13.1181H42.6264V32.1695H17.3542L17.3511 13.1181Z" fill="black"/>
<path d="M18.761 38.5018C19.2275 38.5016 19.6835 38.3632 20.0713 38.1039C20.4592 37.8447 20.7614 37.4763 20.9398 37.0452C21.1183 36.6142 21.1649 36.1399 21.0738 35.6824C20.9827 35.2249 20.758 34.8047 20.4281 34.4749C20.0982 34.145 19.6779 33.9204 19.2204 33.8295C18.7628 33.7385 18.2886 33.7852 17.8576 33.9638C17.4266 34.1423 17.0583 34.4447 16.7991 34.8326C16.5399 35.2205 16.4016 35.6765 16.4016 36.143C16.4016 36.4528 16.4626 36.7596 16.5812 37.0458C16.6998 37.332 16.8736 37.5921 17.0927 37.8111C17.3118 38.0302 17.5719 38.2039 17.8582 38.3224C18.1444 38.4409 18.4512 38.5019 18.761 38.5018ZM18.761 34.7533C19.0357 34.7534 19.3042 34.835 19.5326 34.9877C19.7609 35.1404 19.9389 35.3574 20.0439 35.6112C20.149 35.865 20.1764 36.1443 20.1227 36.4137C20.0691 36.6832 19.9367 36.9306 19.7424 37.1248C19.5481 37.319 19.3006 37.4513 19.0312 37.5048C18.7617 37.5584 18.4825 37.5308 18.2287 37.4257C17.9749 37.3205 17.758 37.1425 17.6054 36.914C17.4528 36.6856 17.3713 36.4171 17.3713 36.1424C17.3713 35.9599 17.4073 35.7792 17.4771 35.6106C17.547 35.4421 17.6493 35.2889 17.7784 35.1599C17.9075 35.0309 18.0607 34.9286 18.2293 34.8588C18.3979 34.7891 18.5786 34.7532 18.761 34.7533Z" fill="#35A893"/>
<path d="M25.5363 34.4941H23.2053C23.0767 34.4941 22.9534 34.5452 22.8625 34.6362C22.7715 34.7271 22.7205 34.8504 22.7205 34.979V37.3106C22.7205 37.4392 22.7715 37.5625 22.8625 37.6535C22.9534 37.7444 23.0767 37.7955 23.2053 37.7955H25.5363C25.6649 37.7955 25.7882 37.7444 25.8792 37.6535C25.9701 37.5625 26.0212 37.4392 26.0212 37.3106V34.979C26.0212 34.8504 25.9701 34.7271 25.8792 34.6362C25.7882 34.5452 25.6649 34.4941 25.5363 34.4941ZM25.0515 36.8258H23.6926V35.4669H25.0515V36.8258Z" fill="black"/>
<path d="M34.1047 35.6592H27.9795C27.8509 35.6592 27.7276 35.7103 27.6366 35.8012C27.5457 35.8921 27.4946 36.0154 27.4946 36.144C27.4946 36.2726 27.5457 36.3959 27.6366 36.4869C27.7276 36.5778 27.8509 36.6289 27.9795 36.6289H34.1047C34.2333 36.6289 34.3566 36.5778 34.4475 36.4869C34.5385 36.3959 34.5895 36.2726 34.5895 36.144C34.5895 36.0154 34.5385 35.8921 34.4475 35.8012C34.3566 35.7103 34.2333 35.6592 34.1047 35.6592Z" fill="black"/>
<path d="M37.6727 35.6592H36.7585C36.6299 35.6592 36.5066 35.7103 36.4157 35.8012C36.3248 35.8921 36.2737 36.0154 36.2737 36.144C36.2737 36.2726 36.3248 36.3959 36.4157 36.4869C36.5066 36.5778 36.6299 36.6289 36.7585 36.6289H37.6727C37.8013 36.6289 37.9246 36.5778 38.0155 36.4869C38.1064 36.3959 38.1575 36.2726 38.1575 36.144C38.1575 36.0154 38.1064 35.8921 38.0155 35.8012C37.9246 35.7103 37.8013 35.6592 37.6727 35.6592Z" fill="#35A893"/>
<path d="M40.0922 25.819H32.224C32.1401 25.8194 32.0578 25.8421 31.9856 25.8849C31.9134 25.9277 31.8539 25.9889 31.8133 26.0623L30.8362 27.8053L29.1951 21.8759C29.169 21.7785 29.1127 21.6919 29.0342 21.6287C28.9557 21.5654 28.8591 21.5287 28.7584 21.5239C28.6577 21.5196 28.5582 21.5478 28.4748 21.6044C28.3913 21.6611 28.3284 21.743 28.2952 21.8382L26.8023 25.9147H19.8933C19.7647 25.9147 19.6414 25.9658 19.5505 26.0567C19.4595 26.1477 19.4084 26.271 19.4084 26.3996C19.4084 26.5282 19.4595 26.6515 19.5505 26.7424C19.6414 26.8333 19.7647 26.8844 19.8933 26.8844H27.1309C27.2283 26.8838 27.3231 26.8532 27.4026 26.7969C27.482 26.7405 27.5422 26.6611 27.575 26.5694L28.6762 23.5633L30.2315 29.1839C30.256 29.275 30.3069 29.3567 30.3778 29.4188C30.4487 29.4809 30.5364 29.5206 30.6299 29.5329C30.6489 29.5353 30.6681 29.5366 30.6873 29.5366C30.7712 29.5362 30.8535 29.5134 30.9257 29.4706C30.9979 29.4278 31.0574 29.3666 31.098 29.2933L32.4982 26.7943H40.0922C40.2208 26.7943 40.3441 26.7432 40.4351 26.6522C40.526 26.5613 40.5771 26.438 40.5771 26.3094C40.5771 26.1808 40.526 26.0575 40.4351 25.9666C40.3441 25.8756 40.2208 25.8245 40.0922 25.8245V25.819Z" fill="#35A893"/>
<path d="M38.4817 14.9822C37.842 14.9796 37.2229 15.2074 36.7374 15.624C36.2109 15.1694 35.5284 14.937 34.8338 14.9759C34.1393 15.0147 33.487 15.3217 33.0144 15.8322C32.5418 16.3427 32.2859 17.0167 32.3007 17.7121C32.3154 18.4076 32.5996 19.0702 33.0933 19.5602L34.8091 21.2754C35.0559 21.5236 35.3493 21.7205 35.6725 21.8547C35.9958 21.9889 36.3424 22.0578 36.6923 22.0574H36.7665C37.1185 22.0592 37.4673 21.9909 37.7927 21.8567C38.1182 21.7225 38.4136 21.5249 38.662 21.2754L40.3797 19.5608C40.755 19.1858 41.0107 18.7079 41.1143 18.1876C41.2179 17.6673 41.1648 17.1279 40.9617 16.6377C40.7586 16.1476 40.4147 15.7287 39.9734 15.4341C39.5322 15.1395 39.0134 14.9825 38.4829 14.9828L38.4817 14.9822ZM39.6935 18.8734L37.9783 20.5886C37.8177 20.7487 37.6269 20.8752 37.4169 20.9606C37.207 21.0461 36.982 21.0889 36.7553 21.0864H36.7072C36.4826 21.0877 36.26 21.0443 36.0522 20.9589C35.8445 20.8734 35.6559 20.7476 35.4972 20.5886L33.7814 18.8734C33.6183 18.7151 33.4883 18.526 33.399 18.3171C33.3096 18.1081 33.2628 17.8835 33.2611 17.6562C33.2594 17.429 33.3029 17.2037 33.389 16.9934C33.4752 16.7831 33.6023 16.5921 33.763 16.4314C33.9237 16.2707 34.1147 16.1436 34.325 16.0574C34.5353 15.9712 34.7606 15.9277 34.9879 15.9294C35.2151 15.9312 35.4397 15.978 35.6487 16.0673C35.8577 16.1567 36.0468 16.2867 36.205 16.4497L36.3953 16.64C36.4862 16.7307 36.6093 16.7816 36.7377 16.7816C36.8661 16.7816 36.9893 16.7307 37.0802 16.64L37.2711 16.4497C37.5982 16.1396 38.0318 15.9667 38.4826 15.9667C38.9334 15.9667 39.367 16.1396 39.6941 16.4497C40.014 16.772 40.1934 17.2076 40.1934 17.6616C40.1934 18.1156 40.014 18.5512 39.6941 18.8734H39.6935Z" fill="#35A893"/>
</g>
</g>
<defs>
<clipPath id="clip0_2183_20952">
<rect width="60" height="50" fill="white" transform="translate(-0.0100098 0.116211)"/>
</clipPath>
<clipPath id="clip1_2183_20952">
<rect width="42" height="42" fill="white" transform="translate(8.98999 4.11621)"/>
</clipPath>
</defs>
</svg>
