<svg width="89" height="72" viewBox="0 0 89 72" fill="none" xmlns="http://www.w3.org/2000/svg">
<path d="M37.1256 91.9835C37.1256 91.9835 37.5092 91.5999 38.2765 90.8326C39.0438 90.0653 39.4275 88.5972 39.4275 86.4283C39.4275 84.2594 38.6602 82.4076 37.1256 80.873C35.591 79.3384 33.7392 78.5711 31.5703 78.5711C29.4014 78.5711 27.5497 79.3384 26.0151 80.873C24.4805 82.4076 23.7132 84.2594 23.7132 86.4283C23.7132 88.5972 24.4805 90.4489 26.0151 91.9835C27.5497 93.5181 29.4014 94.2854 31.5703 94.2854C33.7392 94.2854 35.591 93.5181 37.1256 91.9835ZM15.856 54.9997H39.4275V39.2854H29.7288C29.1559 39.3673 28.7057 39.5514 28.3783 39.8379L16.4085 51.8078C16.122 52.2988 15.9379 52.749 15.856 53.1582V54.9997ZM92.1256 91.9835C92.1256 91.9835 92.5092 91.5999 93.2765 90.8326C94.0438 90.0653 94.4275 88.5972 94.4275 86.4283C94.4275 84.2594 93.6602 82.4076 92.1256 80.873C90.591 79.3384 88.7392 78.5711 86.5703 78.5711C84.4014 78.5711 82.5497 79.3384 81.0151 80.873C79.4805 82.4076 78.7132 84.2594 78.7132 86.4283C78.7132 88.5972 79.4805 90.4489 81.0151 91.9835C82.5497 93.5181 84.4014 94.2854 86.5703 94.2854C88.7392 94.2854 90.591 93.5181 92.1256 91.9835ZM102.285 45.1783V33.3926C102.285 32.8197 102.1 32.3491 101.732 31.9807C101.364 31.6124 100.893 31.4283 100.32 31.4283H86.5703V17.6783C86.5703 17.1054 86.3862 16.6348 86.0179 16.2665C85.6496 15.8982 85.1789 15.714 84.606 15.714H72.8203C72.2474 15.714 71.7768 15.8982 71.4085 16.2665C71.0402 16.6348 70.856 17.1054 70.856 17.6783V31.4283H57.106C56.5331 31.4283 56.0625 31.6124 55.6942 31.9807C55.3259 32.3491 55.1417 32.8197 55.1417 33.3926V45.1783C55.1417 45.7512 55.3259 46.2218 55.6942 46.5901C56.0625 46.9584 56.5331 47.1426 57.106 47.1426H70.856V60.8926C70.856 61.4655 71.0402 61.9361 71.4085 62.3044C71.7768 62.6727 72.2474 62.8569 72.8203 62.8569H84.606C85.1789 62.8569 85.6496 62.6727 86.0179 62.3044C86.3862 61.9361 86.5703 61.4655 86.5703 60.8926V47.1426H100.32C100.893 47.1426 101.364 46.9584 101.732 46.5901C102.1 46.2218 102.285 45.7512 102.285 45.1783ZM117.999 11.7854V82.4997C117.999 83.5637 117.61 84.4845 116.833 85.262C116.055 86.0395 115.134 86.4283 114.07 86.4283H102.285C102.285 90.7661 100.75 94.4696 97.6808 97.5388C94.6116 100.608 90.9081 102.143 86.5703 102.143C82.2325 102.143 78.529 100.608 75.4598 97.5388C72.3906 94.4696 70.856 90.7661 70.856 86.4283H47.2846C47.2846 90.7661 45.75 94.4696 42.6808 97.5388C39.6116 100.608 35.9081 102.143 31.5703 102.143C27.2325 102.143 23.529 100.608 20.4598 97.5388C17.3906 94.4696 15.856 90.7661 15.856 86.4283H7.99888C6.9349 86.4283 6.01414 86.0395 5.23661 85.262C4.45908 84.4845 4.07031 83.5637 4.07031 82.4997C4.07031 81.4357 4.45908 80.515 5.23661 79.7374C6.01414 78.9599 6.9349 78.5711 7.99888 78.5711V53.0354C7.99888 51.9714 8.26488 50.7847 8.79688 49.4752C9.32887 48.1656 9.98363 47.1221 10.7612 46.3446L22.9152 34.1906C23.6927 33.413 24.7362 32.7583 26.0458 32.2263C27.3553 31.6943 28.542 31.4283 29.606 31.4283H39.4275V11.7854C39.4275 10.7214 39.8162 9.80069 40.5938 9.02316C41.3713 8.24563 42.292 7.85686 43.356 7.85686H114.07C115.134 7.85686 116.055 8.24563 116.833 9.02316C117.61 9.80069 117.999 10.7214 117.999 11.7854Z" fill="white"/>
</svg>
