<svg width="42" height="43" viewBox="0 0 42 43" fill="none" xmlns="http://www.w3.org/2000/svg">
<path d="M40.137 0.21582H1.84293C0.81958 0.21582 -0.0100098 1.04541 -0.0100098 2.06876V40.3629C-0.0100098 41.3862 0.81958 42.2158 1.84293 42.2158H40.137C41.1604 42.2158 41.99 41.3862 41.99 40.3629V2.06876C41.99 1.04541 41.1604 0.21582 40.137 0.21582Z" fill="white"/>
<mask id="mask0_2476_1714" style="mask-type:luminance" maskUnits="userSpaceOnUse" x="8" y="3" width="26" height="37">
<path d="M33.3226 3.30371H8.6377V39.4466H33.3226V3.30371Z" fill="white"/>
</mask>
<g mask="url(#mask0_2476_1714)">
<path d="M30.4641 6.23828C29.7289 7.16977 29.2213 8.26003 28.9817 9.42225C28.8027 10.6853 28.6946 11.9574 28.6581 13.2325C28.6581 15.5753 32.2337 20.8018 32.2337 20.8018C32.7895 21.8061 32.7426 22.7165 31.3615 23.1451C31.0663 23.2365 30.2875 23.3922 30.2875 23.3922C30.2875 23.3922 28.5914 24.1636 29.5932 25.1216C29.7232 25.2437 29.8241 25.3933 29.8886 25.5595C29.9531 25.7258 29.9795 25.9043 29.9658 26.0821C29.9522 26.2599 29.8989 26.4323 29.8098 26.5868C29.7208 26.7412 29.5982 26.8737 29.4512 26.9745C29.041 27.255 28.1912 27.2488 27.5513 27.956" fill="white"/>
<path d="M30.4641 6.23828C29.7289 7.16977 29.2213 8.26003 28.9817 9.42225C28.8027 10.6853 28.6946 11.9574 28.6581 13.2325C28.6581 15.5753 32.2337 20.8018 32.2337 20.8018C32.7895 21.8061 32.7426 22.7165 31.3615 23.1451C31.0663 23.2365 30.2875 23.3922 30.2875 23.3922C30.2875 23.3922 28.5914 24.1636 29.5932 25.1216C29.7232 25.2437 29.8241 25.3933 29.8886 25.5595C29.9531 25.7258 29.9795 25.9043 29.9658 26.0821C29.9522 26.2599 29.8989 26.4323 29.8098 26.5868C29.7208 26.7412 29.5982 26.8737 29.4512 26.9745C29.041 27.255 28.1912 27.2488 27.5513 27.956" stroke="black" stroke-width="0.988235"/>
<path d="M30.4641 6.23828C29.7289 7.16977 29.2213 8.26003 28.9817 9.42225C28.8027 10.6853 28.6946 11.9574 28.6581 13.2325C28.6581 15.5753 32.2337 20.8018 32.2337 20.8018C32.7895 21.8061 32.7426 22.7165 31.3615 23.1451C31.0663 23.2365 30.2875 23.3922 30.2875 23.3922C30.2875 23.3922 28.5914 24.1636 29.5932 25.1216C29.7232 25.2437 29.8241 25.3933 29.8886 25.5595C29.9531 25.7258 29.9795 25.9043 29.9658 26.0821C29.9522 26.2599 29.8989 26.4323 29.8098 26.5868C29.7208 26.7412 29.5982 26.8737 29.4512 26.9745C29.041 27.255 28.1912 27.2488 27.5513 27.956" stroke="black" stroke-width="0.988235" stroke-linecap="round" stroke-linejoin="round"/>
<path d="M29.4921 27.0068C29.7919 27.3732 29.9583 27.8305 29.964 28.3039C29.964 29.0821 28.8269 29.4354 28.8269 29.8598C28.9095 30.805 28.8617 31.757 28.6849 32.6892C28.4007 33.7503 26.8362 34.9523 24.7035 34.4575C22.5708 33.9628 18.377 33.1135 18.377 33.1135" stroke="black" stroke-width="0.988235" stroke-linecap="round" stroke-linejoin="round"/>
<path d="M14.7512 17.5552C16.9202 17.3784 19.0507 16.8788 21.0722 16.0729C24.2265 14.6251 28.4661 12.1582 28.9707 9.41895" stroke="black" stroke-width="0.988235" stroke-linecap="round" stroke-linejoin="round"/>
<path d="M31.3857 3.69238C31.3857 3.69238 33.4493 5.67256 32.8063 8.21912C32.1633 10.7657 30.4592 11.5433 30.4592 11.5433" stroke="black" stroke-width="0.988235" stroke-linecap="round" stroke-linejoin="round"/>
<path d="M21.7541 33.9736C21.7541 33.9736 20.0834 35.5912 21.3632 39.0569" stroke="black" stroke-width="0.988235" stroke-linecap="round" stroke-linejoin="round"/>
<path d="M14.9644 18.9127C14.7395 16.906 13.705 14.9777 11.3548 15.3026C9.5933 15.5459 8.78727 16.9702 9.08806 18.9665C9.27335 20.1752 9.87988 20.9491 10.1208 21.8694C10.4852 23.2591 10.8335 24.0448 11.9428 24.0448C13.0972 24.0448 13.4388 23.3246 13.9811 22.421" stroke="black" stroke-width="0.988235" stroke-linecap="round" stroke-linejoin="round"/>
<path d="M13.2083 18.9775C13.2083 18.9775 12.9483 16.8423 11.5172 17.2308C10.0861 17.6193 10.9317 19.1721 10.9317 19.1721" stroke="black" stroke-width="0.988235" stroke-linecap="round" stroke-linejoin="round"/>
<path d="M16.7432 14.1606C23.2124 13.3119 24.4211 7.08789 24.4211 7.08789" stroke="black" stroke-width="0.988235" stroke-linecap="round" stroke-linejoin="round"/>
<path d="M21.9321 5.03613C21.9321 5.03613 20.7234 11.2602 14.2542 12.1088" stroke="black" stroke-width="0.988235" stroke-linecap="round" stroke-linejoin="round"/>
<path d="M19.9056 24.9479C19.9062 24.8164 19.8677 24.6876 19.7951 24.5779C19.7224 24.4682 19.6189 24.3825 19.4975 24.3317C19.3761 24.281 19.2424 24.2674 19.1132 24.2927C18.9841 24.318 18.8654 24.381 18.7722 24.4738C18.6789 24.5667 18.6153 24.6851 18.5894 24.8141C18.5635 24.9431 18.5765 25.0768 18.6267 25.1985C18.6769 25.3201 18.7621 25.4241 18.8715 25.4972C18.9808 25.5704 19.1094 25.6094 19.241 25.6095C19.4168 25.6098 19.5856 25.5403 19.7102 25.4162C19.8348 25.2922 19.9051 25.1238 19.9056 24.9479Z" fill="#35A893"/>
<path d="M18.036 26.4773C18.0362 26.3458 17.9974 26.2172 17.9246 26.1078C17.8517 25.9983 17.748 25.913 17.6266 25.8625C17.5051 25.812 17.3715 25.7986 17.2425 25.8241C17.1135 25.8496 16.9949 25.9128 16.9019 26.0057C16.8088 26.0986 16.7454 26.217 16.7196 26.346C16.6939 26.475 16.707 26.6086 16.7573 26.7301C16.8075 26.8517 16.8927 26.9555 17.002 27.0286C17.1113 27.1017 17.2399 27.1407 17.3714 27.1407C17.5472 27.141 17.716 27.0715 17.8406 26.9475C17.9652 26.8235 18.0355 26.655 18.036 26.4792" fill="#35A893"/>
<path d="M18.036 23.5017C18.0366 23.3701 17.9981 23.2413 17.9255 23.1316C17.8528 23.0219 17.7492 22.9362 17.6278 22.8855C17.5065 22.8347 17.3727 22.8211 17.2436 22.8464C17.1145 22.8717 16.9958 22.9347 16.9025 23.0275C16.8093 23.1204 16.7457 23.2388 16.7198 23.3678C16.6939 23.4968 16.7069 23.6306 16.7571 23.7522C16.8073 23.8738 16.8925 23.9778 17.0018 24.0509C17.1112 24.1241 17.2398 24.1632 17.3714 24.1632C17.5472 24.1635 17.716 24.094 17.8406 23.97C17.9652 23.8459 18.0355 23.6775 18.036 23.5017Z" fill="#35A893"/>
<path d="M24.5262 27.7067C24.5268 27.5752 24.4883 27.4464 24.4157 27.3367C24.343 27.227 24.2395 27.1413 24.1181 27.0905C23.9967 27.0398 23.863 27.0262 23.7339 27.0515C23.6047 27.0767 23.486 27.1398 23.3928 27.2326C23.2995 27.3254 23.2359 27.4439 23.21 27.5729C23.1841 27.7019 23.1971 27.8357 23.2473 27.9573C23.2975 28.0789 23.3827 28.1829 23.4921 28.256C23.6014 28.3292 23.73 28.3682 23.8616 28.3682C24.0374 28.3686 24.2062 28.2991 24.3308 28.175C24.4554 28.051 24.5257 27.8826 24.5262 27.7067Z" fill="#35A893"/>
<path d="M24.8826 24.9479C24.8832 24.8164 24.8448 24.6876 24.7721 24.5779C24.6995 24.4682 24.5959 24.3825 24.4745 24.3317C24.3531 24.281 24.2194 24.2674 24.0903 24.2927C23.9612 24.318 23.8425 24.381 23.7492 24.4738C23.656 24.5667 23.5924 24.6851 23.5665 24.8141C23.5406 24.9431 23.5535 25.0768 23.6038 25.1985C23.654 25.3201 23.7391 25.4241 23.8485 25.4972C23.9579 25.5704 24.0865 25.6094 24.218 25.6095C24.3939 25.6098 24.5626 25.5403 24.6873 25.4162C24.8119 25.2922 24.8821 25.1238 24.8826 24.9479Z" fill="#35A893"/>
<path d="M20.4744 27.9187C20.475 27.7871 20.4366 27.6583 20.3639 27.5486C20.2913 27.4389 20.1877 27.3532 20.0663 27.3025C19.9449 27.2517 19.8112 27.2381 19.6821 27.2634C19.553 27.2887 19.4343 27.3517 19.341 27.4445C19.2478 27.5374 19.1842 27.6558 19.1583 27.7848C19.1324 27.9138 19.1453 28.0476 19.1956 28.1692C19.2458 28.2908 19.3309 28.3948 19.4403 28.4679C19.5497 28.5411 19.6783 28.5802 19.8098 28.5802C19.9857 28.5805 20.1544 28.511 20.279 28.387C20.4037 28.2629 20.4739 28.0945 20.4744 27.9187Z" fill="#35A893"/>
<path d="M18.5548 29.8991C18.5554 29.7675 18.5169 29.6388 18.4443 29.5291C18.3716 29.4194 18.268 29.3337 18.1466 29.2829C18.0253 29.2321 17.8915 29.2186 17.7624 29.2438C17.6333 29.2691 17.5146 29.3322 17.4213 29.425C17.3281 29.5178 17.2645 29.6362 17.2386 29.7652C17.2127 29.8942 17.2257 30.028 17.2759 30.1496C17.3261 30.2713 17.4113 30.3752 17.5206 30.4484C17.63 30.5216 17.7586 30.5606 17.8902 30.5606C18.066 30.561 18.2348 30.4915 18.3594 30.3674C18.484 30.2434 18.5543 30.0749 18.5548 29.8991Z" fill="#35A893"/>
<path d="M22.6566 29.236C22.6572 29.1045 22.6187 28.9757 22.5461 28.866C22.4734 28.7563 22.3698 28.6706 22.2484 28.6198C22.1271 28.5691 21.9933 28.5555 21.8642 28.5808C21.7351 28.606 21.6164 28.6691 21.5231 28.7619C21.4299 28.8547 21.3663 28.9732 21.3404 29.1022C21.3145 29.2312 21.3275 29.3649 21.3777 29.4866C21.4279 29.6082 21.5131 29.7122 21.6224 29.7853C21.7318 29.8585 21.8604 29.8975 21.992 29.8975C22.1678 29.8979 22.3366 29.8284 22.4612 29.7043C22.5858 29.5803 22.6561 29.4119 22.6566 29.236Z" fill="#35A893"/>
<path d="M22.6566 26.2595C22.6572 26.1279 22.6187 25.9991 22.5461 25.8894C22.4734 25.7797 22.3698 25.6941 22.2484 25.6433C22.1271 25.5925 21.9933 25.5789 21.8642 25.6042C21.7351 25.6295 21.6164 25.6925 21.5231 25.7854C21.4299 25.8782 21.3663 25.9966 21.3404 26.1256C21.3145 26.2546 21.3275 26.3884 21.3777 26.51C21.4279 26.6316 21.5131 26.7356 21.6224 26.8088C21.7318 26.8819 21.8604 26.921 21.992 26.921C22.1678 26.9213 22.3366 26.8518 22.4612 26.7278C22.5858 26.6037 22.6561 26.4353 22.6566 26.2595Z" fill="#35A893"/>
<path d="M22.0174 23.5017C22.018 23.3701 21.9796 23.2413 21.9069 23.1316C21.8343 23.0219 21.7307 22.9362 21.6093 22.8855C21.4879 22.8347 21.3542 22.8211 21.2251 22.8464C21.0959 22.8717 20.9772 22.9347 20.884 23.0275C20.7907 23.1204 20.7271 23.2388 20.7012 23.3678C20.6753 23.4968 20.6883 23.6306 20.7385 23.7522C20.7887 23.8738 20.8739 23.9778 20.9833 24.0509C21.0926 24.1241 21.2212 24.1632 21.3528 24.1632C21.5286 24.1635 21.6974 24.094 21.822 23.97C21.9466 23.8459 22.0169 23.6775 22.0174 23.5017Z" fill="#35A893"/>
<path d="M20.0977 21.7331C20.0983 21.6015 20.0599 21.4727 19.9872 21.3631C19.9146 21.2534 19.811 21.1677 19.6896 21.1169C19.5682 21.0661 19.4345 21.0525 19.3054 21.0778C19.1763 21.1031 19.0576 21.1662 18.9643 21.259C18.871 21.3518 18.8074 21.4702 18.7816 21.5992C18.7557 21.7282 18.7686 21.862 18.8189 21.9836C18.8691 22.1052 18.9542 22.2092 19.0636 22.2824C19.1729 22.3555 19.3016 22.3946 19.4331 22.3946C19.609 22.3949 19.7777 22.3254 19.9023 22.2014C20.027 22.0774 20.0972 21.9089 20.0977 21.7331Z" fill="#35A893"/>
</g>
</svg>
