<svg width="50" height="51" viewBox="0 0 50 51" fill="none" xmlns="http://www.w3.org/2000/svg">
<g clip-path="url(#clip0_2184_21336)">
<g clip-path="url(#clip1_2184_21336)">
<g clip-path="url(#clip2_2184_21336)">
<path d="M1.7326 41.0284C1.6146 41.0226 1.5023 40.9759 1.41496 40.8964C1.32762 40.8168 1.27068 40.7093 1.25392 40.5924C0.962266 36.1091 1.21658 31.6069 2.01127 27.185C2.44398 24.7553 3.12424 22.3762 4.04142 20.085C5.9427 15.3023 6.90388 10.1979 6.8723 5.05119V1.83796C6.8748 1.71156 6.92667 1.59115 7.01682 1.50252C7.10697 1.41388 7.22823 1.36405 7.35466 1.36369C7.41798 1.36101 7.48117 1.37146 7.54027 1.39439C7.59936 1.41731 7.65307 1.4522 7.69803 1.49688C7.74298 1.54156 7.77821 1.59506 7.80149 1.65401C7.82478 1.71296 7.83562 1.77609 7.83334 1.83943V5.05266C7.87559 10.3194 6.90194 15.545 4.96569 20.4431C4.05559 22.6794 3.38733 25.0066 2.97231 27.385C2.20107 31.7295 1.94685 36.1499 2.21495 40.5541C2.22448 40.6808 2.1834 40.8062 2.10071 40.9026C2.01801 40.9991 1.90045 41.0589 1.77377 41.0688C1.77377 41.0291 1.77377 41.0291 1.73407 41.0291L1.7326 41.0284Z" fill="black"/>
<path d="M40.2495 41.0283H40.2098C40.0864 41.0105 39.9737 40.9485 39.8926 40.8539C39.8114 40.7592 39.7674 40.6383 39.7686 40.5136C40.0366 36.1363 39.7824 31.7426 39.0113 27.4254C38.5767 25.037 37.9077 22.6973 37.0142 20.4401C35.078 15.542 34.1043 10.3164 34.1466 5.04966V1.8379C34.1534 1.71572 34.2067 1.60078 34.2956 1.51669C34.3845 1.4326 34.5022 1.38574 34.6245 1.38574C34.7469 1.38574 34.8646 1.4326 34.9535 1.51669C35.0424 1.60078 35.0957 1.71572 35.1025 1.8379V5.05113C35.0671 10.1981 36.0284 15.3033 37.9334 20.085C38.8565 22.4017 39.5378 24.8076 39.9665 27.2644C40.7609 31.6596 41.0152 36.1354 40.7238 40.5923C40.7072 40.7094 40.6503 40.817 40.563 40.8967C40.4756 40.9764 40.3632 41.0232 40.2451 41.0291L40.2495 41.0283Z" fill="black"/>
<path d="M21.1893 33.1354C19.7717 33.1037 18.3883 32.6934 17.1826 31.9472C15.9769 31.201 14.9927 30.1459 14.3319 28.8913C13.5095 27.1788 13.0482 25.3154 12.9768 23.417C12.8017 20.498 13.3066 17.5783 14.4518 14.8876L14.5716 14.6494C15.5275 12.5472 16.8841 11.2773 18.4393 10.9604C19.9944 10.6435 21.6687 11.317 23.3834 12.9832C23.8971 11.8685 24.8274 10.9998 25.9746 10.5633L26.4893 10.3648C26.529 10.3648 26.529 10.3648 26.5694 10.3251C26.9003 10.2508 27.247 10.3026 27.5416 10.4705C27.8363 10.6384 28.0576 10.9103 28.1623 11.2328C28.267 11.5554 28.2476 11.9054 28.1077 12.2144C27.9678 12.5233 27.7176 12.7689 27.4062 12.9031C26.6091 13.2207 26.529 13.4582 26.1701 14.6486L26.0503 14.8472C25.9524 15.1688 25.7834 15.4641 25.5556 15.7114C25.3279 15.9586 25.0473 16.1513 24.7348 16.2751C24.4247 16.4061 24.0904 16.4703 23.7538 16.4634C23.4172 16.4566 23.0857 16.3789 22.7812 16.2354L21.426 15.6405C21.3863 15.6008 21.3459 15.6405 21.3062 15.6803C21.2968 15.6871 21.2891 15.696 21.2838 15.7064C21.2785 15.7167 21.2758 15.7282 21.2758 15.7398C21.2758 15.7514 21.2785 15.7629 21.2838 15.7733C21.2891 15.7836 21.2968 15.7926 21.3062 15.7994L23.4194 19.2104C23.5556 19.428 23.6376 19.6752 23.6585 19.9311C23.6794 20.187 23.6385 20.4442 23.5393 20.681C23.4356 20.9202 23.2769 21.1315 23.076 21.2976C22.8751 21.4637 22.6378 21.58 22.3834 21.6369C21.8785 21.7487 21.4027 21.9648 20.9863 22.2714L19.79 23.1839C19.4595 23.4385 19.0662 23.5988 18.6519 23.6477C18.2376 23.6967 17.8178 23.6325 17.437 23.4619C17.1244 23.3284 16.8567 23.1078 16.6659 22.8265C16.475 22.5452 16.3691 22.215 16.3606 21.8751C16.3647 21.3939 16.527 20.9275 16.8223 20.5476C17.1177 20.1677 17.5298 19.8955 17.9951 19.7729L18.7922 19.5744C18.8521 19.5613 18.914 19.5601 18.9744 19.571C19.0347 19.5818 19.0924 19.6044 19.144 19.6376C19.1956 19.6707 19.2402 19.7136 19.2752 19.764C19.3102 19.8143 19.335 19.8711 19.3481 19.931C19.3612 19.9909 19.3623 20.0528 19.3515 20.1132C19.3406 20.1735 19.318 20.2312 19.2849 20.2828C19.2518 20.3344 19.2088 20.379 19.1585 20.414C19.1081 20.449 19.0514 20.4738 18.9915 20.4869L18.1944 20.6854C17.937 20.7508 17.7081 20.8986 17.5426 21.1062C17.377 21.3138 17.2839 21.5699 17.2775 21.8354C17.2723 22.0048 17.3192 22.1717 17.4119 22.3136C17.5046 22.4555 17.6387 22.5655 17.7959 22.6288C18.0214 22.731 18.2703 22.7703 18.5163 22.7423C18.7623 22.7143 18.9962 22.6202 19.1929 22.47L20.3893 21.5575C20.8973 21.175 21.4803 20.9041 22.1003 20.7626C22.2131 20.7454 22.3198 20.7 22.4104 20.6306C22.5011 20.5612 22.5727 20.47 22.6187 20.3656C22.6615 20.2639 22.6802 20.1537 22.6733 20.0436C22.6664 19.9335 22.6341 19.8265 22.579 19.731L20.5054 16.32C20.3872 16.1305 20.3349 15.9072 20.3565 15.6849C20.3782 15.4626 20.4727 15.2537 20.6253 15.0905C20.7658 14.9183 20.9595 14.7975 21.176 14.7472C21.3925 14.6969 21.6196 14.7199 21.8216 14.8126L23.2187 15.4075C23.4028 15.5018 23.6056 15.5543 23.8124 15.5611C24.0192 15.568 24.225 15.5291 24.415 15.4472C24.6019 15.3661 24.7695 15.2465 24.9069 15.0961C25.0443 14.9456 25.1483 14.7678 25.212 14.5744L25.2922 14.3759C25.6907 13.1464 25.8503 12.5119 27.0466 12.0354C27.0969 12.0184 27.1432 11.9913 27.1826 11.9559C27.2221 11.9205 27.254 11.8774 27.2763 11.8293C27.2987 11.7811 27.311 11.729 27.3126 11.6759C27.3142 11.6229 27.305 11.5701 27.2856 11.5207C27.2736 11.4703 27.2515 11.4229 27.2206 11.3813C27.1897 11.3398 27.1507 11.3049 27.1059 11.2789C27.0611 11.2529 27.0115 11.2363 26.9601 11.2301C26.9087 11.2239 26.8566 11.2282 26.8069 11.2428L26.3282 11.4413C25.4014 11.8024 24.6557 12.5164 24.2547 13.4266C24.198 13.5651 24.1052 13.686 23.986 13.7765C23.8668 13.867 23.7254 13.9239 23.5768 13.9413C23.4345 13.9634 23.2892 13.9535 23.1513 13.9123C23.0134 13.8711 22.8864 13.7996 22.7797 13.7031C21.3047 12.2751 19.9121 11.6803 18.6334 11.9185C17.3973 12.1567 16.2804 13.267 15.4437 15.0523C15.4065 15.1138 15.3794 15.1808 15.3635 15.2508C14.2926 17.808 13.815 20.5746 13.9665 23.3428C14.0063 25.1347 14.4419 26.8956 15.2422 28.4994C15.7425 29.4882 16.4757 30.3407 17.3786 30.9833C18.2815 31.6259 19.3271 32.0395 20.4253 32.1883C21.6806 32.3695 22.9602 32.1177 24.0532 31.4744C24.717 31.0664 25.2571 30.4851 25.6153 29.7932C25.9735 29.1012 26.1363 28.3247 26.0863 27.5472C26.0566 26.9626 25.8659 26.3977 25.5353 25.9147C25.2047 25.4317 24.747 25.0496 24.2128 24.8104C23.9467 24.6821 23.6652 24.5887 23.3753 24.5325C23.2595 24.5008 23.1611 24.4244 23.1017 24.3202C23.0423 24.2159 23.0267 24.0923 23.0584 23.9766C23.0901 23.8608 23.1664 23.7624 23.2707 23.703C23.3749 23.6436 23.4985 23.628 23.6143 23.6597C23.9532 23.7593 24.2861 23.8784 24.6113 24.0163C25.291 24.3238 25.8735 24.8118 26.2953 25.4272C26.7172 26.0426 26.9622 26.7618 27.004 27.5067C27.061 28.4495 26.8612 29.3901 26.4259 30.2282C25.9905 31.0664 25.3359 31.7708 24.5319 32.2663C23.5076 32.8373 22.3546 33.1379 21.1819 33.1398L21.1893 33.1354Z" fill="#35A893"/>
<path d="M19.5973 27.1052C19.2953 27.1068 19.001 27.0092 18.7598 26.8273C18.5693 26.6606 18.4198 26.4522 18.323 26.2183C18.2262 25.9844 18.1847 25.7313 18.2017 25.4787C18.1965 25.3572 18.2397 25.2385 18.322 25.1488C18.4042 25.0591 18.5188 25.0057 18.6403 25.0004C18.7619 24.9952 18.8806 25.0384 18.9703 25.1207C19.06 25.2029 19.1134 25.3174 19.1187 25.439C19.1046 25.5622 19.1188 25.687 19.1602 25.8038C19.2016 25.9207 19.2691 26.0265 19.3576 26.1133C19.4287 26.1607 19.5113 26.1881 19.5966 26.1927C19.6572 26.1833 19.7191 26.1861 19.7786 26.201C19.8382 26.2158 19.8941 26.2424 19.9432 26.2792C19.9923 26.316 20.0336 26.3623 20.0645 26.4152C20.0955 26.4682 20.1155 26.5268 20.1235 26.5876C20.1315 26.6484 20.1273 26.7103 20.111 26.7694C20.0948 26.8286 20.0669 26.8839 20.029 26.9321C19.991 26.9803 19.9439 27.0205 19.8902 27.0502C19.8365 27.0799 19.7774 27.0986 19.7164 27.1052C19.7164 27.0648 19.637 27.1052 19.5973 27.1052Z" fill="#35A893"/>
<path d="M19.951 41.0288C19.8367 41.0317 19.7252 40.9931 19.6372 40.9201C19.5492 40.8471 19.4906 40.7446 19.4723 40.6317C19.3026 39.7407 19.0212 38.8745 18.6348 38.0538C18.1062 36.9861 17.2553 36.1115 16.2024 35.5538C14.9449 34.8783 13.8122 33.9928 12.8532 32.9354C11.5283 31.428 10.5264 29.6651 9.90931 27.7555C9.29216 25.8459 9.07287 23.8301 9.26495 21.8325C9.58407 16.5965 12.0958 11.1229 15.4848 8.18763C17.2987 6.53378 19.6485 5.59019 22.1024 5.53027H22.1826C23.5833 5.55651 24.9704 5.81108 26.2892 6.28395C27.3085 6.6258 28.2173 7.23512 28.9207 8.04825C29.624 8.86137 30.096 9.84847 30.2875 10.9064C30.4789 11.9643 30.3828 13.0542 30.009 14.0623C29.6352 15.0703 28.9976 15.9595 28.1627 16.6369L27.7642 17.0339C27.2855 17.5487 25.8105 19.3744 26.4885 21.0009C26.7759 21.5713 27.168 22.0827 27.6444 22.5082C27.8256 22.684 27.9975 22.8693 28.1591 23.0634C28.9684 23.9555 29.5704 25.0156 29.9219 26.1677C30.2734 27.3198 30.3657 28.5354 30.1922 29.7273C29.9969 30.8972 29.5591 32.0132 28.9068 33.0037C28.2545 33.9942 27.4022 34.8373 26.4047 35.4788C25.247 36.1666 24.3604 37.2307 23.8929 38.4935C23.7233 39.1676 23.6429 39.861 23.6539 40.556C23.6471 40.6782 23.5938 40.7931 23.5049 40.8772C23.4161 40.9613 23.2983 41.0082 23.176 41.0082C23.0536 41.0082 22.9359 40.9613 22.847 40.8772C22.7581 40.7931 22.7048 40.6782 22.698 40.556C22.6854 39.7538 22.7794 38.9534 22.9774 38.1759C23.5061 36.6959 24.5356 35.4474 25.8877 34.6465C26.7725 34.0927 27.5243 33.3506 28.0894 32.473C28.6544 31.5954 29.0189 30.6039 29.1569 29.5692C29.3081 28.5128 29.2259 27.4361 28.9159 26.4149C28.6059 25.3938 28.0757 24.453 27.3627 23.659C27.2032 23.5001 27.0436 23.3023 26.8841 23.1442C26.3136 22.6497 25.8522 22.042 25.5289 21.3597C24.6907 19.3009 26.2458 17.2347 26.9635 16.4413C27.1025 16.2634 27.2634 16.1035 27.4421 15.9656C28.1542 15.3889 28.699 14.6322 29.02 13.7741C29.3411 12.9159 29.4267 11.9875 29.2681 11.0851C29.1094 10.1826 28.7122 9.33909 28.1177 8.64189C27.5232 7.94469 26.753 7.41922 25.887 7.11998C24.666 6.69878 23.39 6.45825 22.0995 6.40601H22.0194C19.7905 6.47907 17.6588 7.33596 15.9995 8.82586C12.7701 11.6023 10.4179 16.8406 10.0988 21.8362C9.93465 23.7104 10.1464 25.5986 10.7215 27.3901C11.2966 29.1815 12.2236 30.84 13.448 32.2685C14.3353 33.2505 15.3877 34.0695 16.5576 34.6884C17.7797 35.3352 18.7694 36.3475 19.3885 37.584C19.8422 38.4678 20.1518 39.4185 20.3054 40.4001C20.3147 40.4603 20.3116 40.5218 20.2964 40.5808C20.2811 40.6397 20.254 40.695 20.2168 40.7431C20.1795 40.7913 20.1327 40.8314 20.0795 40.8609C20.0262 40.8904 19.9675 40.9088 19.9069 40.9148C19.987 41.0332 19.9466 41.0332 19.9466 41.0332L19.951 41.0288Z" fill="black"/>
</g>
</g>
</g>
<defs>
<clipPath id="clip0_2184_21336">
<rect width="50" height="50" fill="white" transform="translate(-0.0100098 0.21582)"/>
</clipPath>
<clipPath id="clip1_2184_21336">
<rect width="42" height="42" fill="white" transform="translate(-0.0100098 0.21582)"/>
</clipPath>
<clipPath id="clip2_2184_21336">
<rect width="50" height="50" fill="white" transform="translate(-4.01001 -3.78418)"/>
</clipPath>
</defs>
</svg>
