<svg width="34" height="51" viewBox="0 0 34 51" fill="none" xmlns="http://www.w3.org/2000/svg">
<path d="M3.2499 3.24062C3.2499 3.54062 3.2499 3.97396 3.2499 4.54062C3.2499 6.17396 3.26657 7.40729 3.2999 8.24062C3.43324 11.2406 3.58324 13.5073 3.7499 15.0406C3.9499 16.7073 4.23324 18.124 4.5999 19.2906C5.06657 20.724 5.73324 21.9906 6.5999 23.0906C7.7999 24.5906 9.38324 25.674 11.3499 26.3406C11.4832 26.374 11.6332 26.374 11.7999 26.3406C11.9666 26.3073 12.1166 26.2573 12.2499 26.1906C13.1166 25.7573 13.9666 25.8073 14.7999 26.3406C14.8999 26.4073 15.0416 26.449 15.2249 26.4656C15.4082 26.4823 15.5666 26.474 15.6999 26.4406C19.1332 25.5073 21.4999 23.1573 22.7999 19.3906C23.1999 18.2573 23.4999 16.9573 23.6999 15.4906C23.7999 14.624 23.9166 13.3073 24.0499 11.5406L24.0999 10.3406C24.1666 9.57396 24.2166 8.40729 24.2499 6.84063C24.2499 5.67396 24.2666 4.80729 24.2999 4.24062V3.24062H19.2499C19.1832 3.24062 19.0666 3.29896 18.8999 3.41562C18.7332 3.53229 18.6166 3.60729 18.5499 3.64062C17.7832 4.00729 17.1166 3.87396 16.5499 3.24062C16.2832 2.94062 16.1416 2.59063 16.1249 2.19062C16.1082 1.79062 16.2166 1.43229 16.4499 1.11562C16.6832 0.798958 16.9916 0.590626 17.3749 0.490623C17.7582 0.390625 18.1499 0.423958 18.5499 0.590626C19.1499 0.790623 19.6332 0.890625 19.9999 0.890625C20.5666 0.890625 21.4082 0.890625 22.5249 0.890625C23.6416 0.890625 24.4832 0.907291 25.0499 0.940624C25.6166 0.973957 26.0166 1.10729 26.2499 1.34063C26.4832 1.57396 26.5999 1.97396 26.5999 2.54062C26.6666 8.37396 26.3666 13.2906 25.6999 17.2906C24.9999 21.8573 22.9499 25.1906 19.5499 27.2906C19.0166 27.624 18.1666 28.0073 16.9999 28.4406L16.1999 28.7406C15.8666 28.874 15.5082 29.174 15.1249 29.6406C14.7416 30.1073 14.5499 30.5073 14.5499 30.8406C14.5832 32.0073 14.6166 33.774 14.6499 36.1406C14.6832 38.5073 14.7166 40.274 14.7499 41.4406C14.7832 42.9406 15.2082 44.2656 16.0249 45.4156C16.8416 46.5656 17.8999 47.374 19.1999 47.8406C20.8332 48.4073 22.3999 48.3073 23.8999 47.5406C25.3999 46.774 26.4832 45.524 27.1499 43.7906C27.3166 43.4573 27.4832 42.9073 27.6499 42.1406L27.6999 41.9906C27.8666 41.324 27.9166 40.824 27.8499 40.4906C27.7499 39.9906 27.3832 39.5906 26.7499 39.2906C26.0166 38.924 25.5416 38.3156 25.3249 37.4656C25.1082 36.6156 25.1582 35.774 25.4749 34.9406C25.7916 34.1073 26.2916 33.4573 26.9749 32.9906C27.6582 32.524 28.4666 32.3073 29.3999 32.3406C30.2332 32.4073 30.9749 32.699 31.6249 33.2156C32.2749 33.7323 32.7082 34.4073 32.9249 35.2406C33.1416 36.074 33.0916 36.8906 32.7749 37.6906C32.4582 38.4906 31.9332 39.1073 31.1999 39.5406C30.8666 39.774 30.6332 39.974 30.4999 40.1406C30.2999 40.374 30.1832 40.6906 30.1499 41.0906C29.9832 43.324 29.3166 45.2406 28.1499 46.8406C26.0166 49.674 23.2666 50.8406 19.8999 50.3406C18.2332 50.074 16.8332 49.474 15.6999 48.5406C14.5666 47.6073 13.7416 46.349 13.2249 44.7656C12.7082 43.1823 12.3999 41.3073 12.2999 39.1406C12.2332 37.8406 12.2166 35.874 12.2499 33.2406V30.8906C12.2499 30.5573 12.0499 30.1156 11.6499 29.5656C11.2499 29.0156 10.8832 28.674 10.5499 28.5406C6.01657 26.9073 3.18324 23.4406 2.0499 18.1406C1.5499 15.8406 1.21657 13.224 1.0499 10.2906C0.949902 8.52396 0.899902 5.87396 0.899902 2.34063C0.899902 1.90729 1.00824 1.57396 1.2249 1.34063C1.44157 1.10729 1.7499 0.990623 2.1499 0.990623L7.4499 0.890625C8.01657 0.823959 8.53324 0.707291 8.9999 0.540623C9.3999 0.407291 9.79157 0.390625 10.1749 0.490623C10.5582 0.590626 10.8582 0.790623 11.0749 1.09063C11.2916 1.39062 11.3916 1.75729 11.3749 2.19062C11.3582 2.62396 11.2249 2.97396 10.9749 3.24062C10.7249 3.50729 10.3999 3.67396 9.9999 3.74062C9.5999 3.80729 9.21657 3.75729 8.8499 3.59063C8.31657 3.35729 7.8499 3.24062 7.4499 3.24062C6.8499 3.20729 5.9499 3.20729 4.7499 3.24062H3.2499ZM29.0999 34.1406C28.4999 34.1406 27.9999 34.349 27.5999 34.7656C27.1999 35.1823 26.9916 35.674 26.9749 36.2406C26.9582 36.8073 27.1666 37.3073 27.5999 37.7406C28.0332 38.174 28.5332 38.399 29.0999 38.4156C29.6666 38.4323 30.1666 38.224 30.5999 37.7906C31.0332 37.3573 31.2499 36.849 31.2499 36.2656C31.2499 35.6823 31.0416 35.1823 30.6249 34.7656C30.2082 34.349 29.6999 34.1406 29.0999 34.1406Z" fill="#74EED8"/>
</svg>
