<svg width="50" height="51" viewBox="0 0 50 51" fill="none" xmlns="http://www.w3.org/2000/svg">
<g clip-path="url(#clip0_2184_21604)">
<path d="M47.7841 0.166016H2.19587C0.977597 0.166016 -0.0100098 1.15362 -0.0100098 2.3719V47.9601C-0.0100098 49.1784 0.977597 50.166 2.19587 50.166H47.7841C49.0024 50.166 49.99 49.1784 49.99 47.9601V2.3719C49.99 1.15362 49.0024 0.166016 47.7841 0.166016Z" fill="white"/>
<mask id="mask0_2184_21604" style="mask-type:luminance" maskUnits="userSpaceOnUse" x="5" y="7" width="40" height="37">
<path d="M44.9201 7.51855H5.13696V43.3031H44.9201V7.51855Z" fill="white"/>
</mask>
<g mask="url(#mask0_2184_21604)">
<path d="M30.2914 19.6571C29.9833 19.3682 29.7524 19.163 29.5348 18.9461C28.6078 18.0974 27.9545 16.9919 27.6581 15.7705C27.3618 14.5491 27.4358 13.2672 27.8708 12.088C28.2322 10.9142 28.9266 9.87052 29.8698 9.08383C30.813 8.29713 31.9644 7.80125 33.184 7.6564C34.4881 7.42874 35.8281 7.52125 37.0885 7.926C38.349 8.33074 39.4923 9.03559 40.4201 9.97993C42.2943 11.7336 43.6168 13.9954 44.2259 16.4888C45.5247 20.9107 45.0275 25.6664 42.8421 29.724C42.4877 30.3821 41.623 31.591 41.623 31.591C40.8127 32.4763 39.9186 33.281 38.9531 33.9939C37.873 34.7078 36.635 35.1474 35.3465 35.2746C34.058 35.4018 32.7579 35.2128 31.559 34.724C30.7295 34.3992 29.9822 33.8947 29.3708 33.2468C29.2009 33.0718 29.0171 32.9101 28.6958 32.6057C28.6958 33.1329 28.6958 33.4682 28.6958 33.8027C28.6958 36.5807 28.6958 39.3588 28.6958 42.1373C28.7312 42.363 28.7164 42.5937 28.6524 42.813C28.548 43.0093 28.2958 43.2461 28.109 43.2454C27.9223 43.2446 27.6928 43.0027 27.5561 42.8137C27.4723 42.6976 27.5208 42.4814 27.5208 42.3101C27.5208 37.7277 27.5083 33.1454 27.5281 28.5601C27.5137 27.4939 27.7702 26.4415 28.2736 25.5016C28.7769 24.5616 29.5107 23.7648 30.4061 23.1858C31.5697 22.3767 32.9789 21.9981 34.3914 22.1152C34.5333 22.1248 34.6752 22.1307 34.8473 22.1395C35.0502 21.6917 34.8524 21.2439 34.9458 20.7549C34.684 20.7292 34.4958 20.7035 34.3068 20.6939C33.7642 20.7183 33.2205 20.6855 32.6848 20.5961C32.0722 20.4448 31.4259 20.5137 30.859 20.791C29.4807 21.2936 28.2527 22.1385 27.2906 23.2461C26.1598 24.6741 25.5694 26.4555 25.6237 28.2763C25.6002 32.8586 25.6156 37.441 25.6149 42.0262C25.6229 42.2553 25.6178 42.4846 25.5995 42.713C25.587 42.869 25.5178 43.015 25.4049 43.1234C25.292 43.2318 25.1433 43.2951 24.987 43.3013C24.8413 43.2961 24.703 43.2357 24.6001 43.1323C24.4973 43.029 24.4377 42.8904 24.4333 42.7446C24.4164 42.5167 24.4193 42.2873 24.4193 42.0579C24.4193 37.5615 24.4355 33.0645 24.4017 28.5682C24.3927 27.654 24.279 26.7439 24.0627 25.8557C23.6776 24.2164 22.6635 22.7943 21.2392 21.8961C20.5278 21.4715 19.7939 21.0859 19.0406 20.741C18.5233 20.4913 17.934 20.4337 17.3781 20.5785C16.6582 20.6817 15.9319 20.7345 15.2046 20.7365C15.0864 21.1646 15.0507 21.6113 15.0995 22.0527C15.8311 22.113 16.5406 22.1218 17.2318 22.2365C18.4652 22.4513 19.6071 23.027 20.5132 23.8908C21.4193 24.7546 22.0489 25.8678 22.3223 27.0895C22.4374 27.6194 22.4978 28.1597 22.5024 28.702C22.5171 33.1983 22.512 37.6946 22.5127 42.1917C22.5198 42.3633 22.5157 42.5353 22.5002 42.7064C22.4951 42.7846 22.4745 42.861 22.4398 42.9312C22.4051 43.0014 22.3568 43.0641 22.2977 43.1156C22.2387 43.1671 22.1701 43.2065 22.0958 43.2314C22.0215 43.2563 21.9431 43.2663 21.8649 43.2608C21.7196 43.2497 21.5842 43.1831 21.4867 43.0748C21.3892 42.9665 21.3372 42.8248 21.3414 42.6792C21.3326 42.4792 21.3355 42.2785 21.3355 42.0777C21.3355 39.2709 21.3355 36.464 21.3355 33.6571C21.3355 33.374 21.3355 33.091 21.3355 32.6932C21.1882 32.7657 21.0504 32.8561 20.9252 32.9623C19.0708 35.2711 15.1553 35.9461 12.2487 34.6167C10.2133 33.6573 8.52696 32.0882 7.42373 30.127C5.69305 27.1648 4.90614 23.7455 5.16784 20.3248C5.27109 17.0076 6.42854 13.8095 8.47225 11.1946C9.74224 9.51043 11.5394 8.2998 13.5774 7.75566C16.4024 7.02478 19.7149 8.00199 21.362 10.4329C22.2666 11.7569 22.6623 13.3631 22.4764 14.9558C22.2905 16.5485 21.5354 18.0205 20.3502 19.1005L19.7156 19.6785C20.894 20.1118 21.9718 20.7804 22.8836 21.6435C23.7954 22.5066 24.522 23.5462 25.0193 24.699C26.0708 22.1748 27.9561 20.7108 30.2906 19.6564M43.7186 21.1027C43.6752 20.6314 43.6252 19.8321 43.5237 19.0395C43.2474 16.5212 42.2876 14.1264 40.748 12.1145C38.9928 9.86816 36.7612 8.50566 33.7921 8.80566C33.0092 8.8507 32.2455 9.06604 31.5544 9.43666C30.8633 9.80728 30.2614 10.3243 29.7907 10.9515C29.32 11.5787 28.9919 12.3011 28.8292 13.0683C28.6665 13.8354 28.6732 14.6289 28.8487 15.3932C29.1322 16.6316 29.8517 17.7269 30.8757 18.4789C31.8998 19.231 33.1601 19.5896 34.4267 19.4895C34.6673 19.4843 34.9024 19.4163 35.1087 19.2924C35.3151 19.1685 35.4855 18.9928 35.6031 18.7829C35.9523 18.264 36.3558 17.7838 36.8068 17.3505C36.9539 17.2162 37.1345 17.124 37.3296 17.0836C37.4539 17.0428 37.5888 17.0486 37.7091 17.1C37.8294 17.1515 37.9269 17.2449 37.9833 17.363C38.0538 17.4729 38.0808 17.6052 38.059 17.7339C38.0373 17.8627 37.9683 17.9787 37.8656 18.0593C37.6987 18.2145 37.498 18.3388 37.3377 18.5005C36.9304 18.8825 36.614 19.3511 36.4119 19.8717C36.2098 20.3923 36.1272 20.9517 36.1701 21.5085C36.213 22.0652 36.3804 22.6053 36.6598 23.0888C36.9393 23.5723 37.3237 23.9869 37.7848 24.302C37.8679 24.343 37.941 24.4017 37.9991 24.4739C38.0572 24.5461 38.0989 24.6301 38.1212 24.72C38.1436 24.8099 38.146 24.9037 38.1284 24.9947C38.1108 25.0857 38.0736 25.1717 38.0193 25.2468C37.9661 25.3158 37.8987 25.3724 37.8216 25.4129C37.7446 25.4533 37.6597 25.4766 37.5727 25.4812C37.4858 25.4859 37.3989 25.4716 37.318 25.4396C37.2371 25.4075 37.164 25.3583 37.1039 25.2954C36.6936 25.0357 36.3347 24.7027 36.045 24.313C35.8689 24.0016 35.6077 23.7468 35.2921 23.5784C34.9765 23.4099 34.6194 23.3347 34.2627 23.3615C33.8945 23.356 33.5262 23.3717 33.1598 23.4086C31.8017 23.6204 30.5808 24.3562 29.7591 25.458C28.9374 26.5599 28.5805 27.9399 28.7649 29.302C28.8734 30.0559 29.1331 30.7802 29.5284 31.4313C29.9237 32.0825 30.4464 32.647 31.0653 33.0912C31.6841 33.5353 32.3863 33.8499 33.1297 34.016C33.8731 34.1821 34.6423 34.1964 35.3914 34.0579C36.4962 33.8731 37.552 33.466 38.4949 32.8613C39.4377 32.2565 40.248 31.4666 40.8767 30.5395C42.8759 27.8446 43.6553 24.7498 43.7171 21.1071M6.28402 21.4505C6.36343 22.3035 6.40093 23.163 6.52887 24.0093C6.86447 26.8174 8.07535 29.4485 9.9899 31.5299C11.8575 33.4821 14.1075 34.5035 16.8708 33.9395C18.1592 33.7282 19.324 33.0483 20.1416 32.0304C20.9592 31.0125 21.3718 29.7284 21.3002 28.4248C21.2744 27.106 20.7464 25.8468 19.8239 24.904C18.9015 23.9612 17.6541 23.4059 16.3362 23.3513C15.4612 23.3079 14.5826 23.3211 14.0186 24.2682C13.689 24.6984 13.2851 25.0662 12.8259 25.3542C12.7661 25.4079 12.6951 25.4477 12.618 25.4707C12.5409 25.4936 12.4597 25.4992 12.3802 25.4869C12.3007 25.4747 12.2249 25.445 12.1583 25.3999C12.0917 25.3548 12.036 25.2955 11.995 25.2263C11.9461 25.1634 11.9106 25.0913 11.8906 25.0142C11.8706 24.9371 11.8666 24.8568 11.8789 24.7781C11.8911 24.6994 11.9194 24.6241 11.9619 24.5567C12.0044 24.4894 12.0602 24.4315 12.1259 24.3865C12.2355 24.2954 12.3612 24.224 12.4723 24.1329C12.9144 23.7881 13.2721 23.3471 13.5181 22.8433C13.7641 22.3395 13.892 21.7862 13.892 21.2255C13.892 20.6649 13.7641 20.1116 13.5181 19.6078C13.2721 19.104 12.9144 18.6629 12.4723 18.3182C12.362 18.227 12.2039 18.1586 12.1517 18.0417C12.0499 17.8523 12.0052 17.6375 12.023 17.4233C12.0381 17.3595 12.0659 17.2994 12.1049 17.2466C12.1438 17.1939 12.1931 17.1496 12.2496 17.1164C12.3062 17.0832 12.3689 17.0618 12.434 17.0535C12.499 17.0452 12.5651 17.0502 12.6281 17.0682C12.8535 17.1067 13.0632 17.2087 13.2325 17.3623C13.6796 17.7597 14.0701 18.2167 14.3928 18.7204C14.516 18.9592 14.7035 19.1588 14.9341 19.2967C15.1647 19.4345 15.4293 19.5052 15.698 19.5005C16.8935 19.5825 18.0809 19.2513 19.0615 18.5626C20.042 17.8738 20.7563 16.8691 21.0848 15.7167C21.4333 14.5415 21.368 13.2822 20.8995 12.1494C20.4311 11.0166 19.588 10.079 18.5112 9.49316C17.6062 9.02036 16.6035 8.76465 15.5825 8.74628C14.5616 8.7279 13.5504 8.94735 12.6289 9.38728C10.9855 10.1581 9.60963 11.4019 8.6774 12.9593C7.10056 15.5099 6.27131 18.4519 6.28402 21.4505Z" fill="black"/>
<path d="M39.476 22.1275C39.0737 22.0539 38.8142 21.8914 38.7407 21.5392C38.6605 21.1613 38.8943 20.951 39.2362 20.8694C39.775 20.8055 40.2749 20.5568 40.6509 20.1657C40.7362 20.0627 41.0848 20.0922 41.2605 20.1716C41.3212 20.1958 41.3763 20.2321 41.4225 20.2783C41.4687 20.3245 41.505 20.3796 41.5292 20.4402C41.5535 20.5009 41.5652 20.5658 41.5636 20.6311C41.5621 20.6964 41.5472 20.7607 41.5201 20.8201C41.4243 21.0858 41.2527 21.3177 41.0267 21.487C40.522 21.7305 40.0035 21.9441 39.4738 22.1267" fill="#35A893"/>
<path d="M33.5325 17.75C33.1612 17.7634 32.7941 17.6669 32.4774 17.4725C32.1608 17.2781 31.9085 16.9946 31.7524 16.6574C31.6689 16.5221 31.6424 16.3592 31.6788 16.2044C31.7152 16.0496 31.8114 15.9156 31.9465 15.8317C32.0102 15.7837 32.0835 15.7501 32.1614 15.7332C32.2393 15.7163 32.32 15.7165 32.3978 15.7339C32.4756 15.7512 32.5487 15.7853 32.6121 15.8336C32.6755 15.882 32.7276 15.9435 32.7649 16.014C32.8623 16.1863 33.0048 16.3289 33.1771 16.4264C33.3494 16.524 33.5449 16.5728 33.7428 16.5677C34.2391 16.5846 34.4215 16.7971 34.4046 17.164C34.3877 17.5309 34.159 17.7147 33.7061 17.7522C33.6494 17.7567 33.5921 17.7522 33.5347 17.7522" fill="#35A893"/>
<path d="M37.1275 31.3277C36.7833 31.3416 36.4959 31.2659 36.4231 30.8688C36.3562 30.5056 36.5209 30.2586 36.9584 30.1549C37.1555 30.1276 37.3445 30.0585 37.5128 29.9522C37.6811 29.846 37.8247 29.705 37.9341 29.5387C37.9736 29.4693 38.0276 29.4093 38.0924 29.3627C38.1572 29.3162 38.2314 29.2842 38.3098 29.269C38.3881 29.2537 38.4688 29.2556 38.5464 29.2745C38.624 29.2934 38.6965 29.3289 38.7591 29.3784C39.0848 29.5791 39.0642 29.9049 38.9385 30.2159C38.7579 30.5414 38.4962 30.8147 38.179 31.0094C37.8617 31.204 37.4995 31.3134 37.1275 31.3269" fill="#35A893"/>
<path d="M35.6679 11.6809C35.5628 12.1221 35.5098 12.428 35.412 12.7221C35.3913 12.7986 35.3554 12.8701 35.3063 12.9323C35.2573 12.9945 35.1962 13.0462 35.1267 13.0843C35.0572 13.1223 34.9808 13.1459 34.9019 13.1537C34.8231 13.1614 34.7435 13.1532 34.6679 13.1295C34.5889 13.1175 34.5137 13.0875 34.4481 13.0419C34.3825 12.9963 34.3283 12.9362 34.2897 12.8662C34.251 12.7963 34.2289 12.7184 34.2252 12.6386C34.2214 12.5588 34.236 12.4792 34.2679 12.4059C34.3478 12.2088 34.3827 11.9963 34.37 11.784C34.3573 11.5717 34.2973 11.3649 34.1944 11.1787C34.1582 11.1159 34.1359 11.0461 34.1291 10.9739C34.1224 10.9018 34.1313 10.829 34.1552 10.7606C34.1792 10.6922 34.2176 10.6297 34.2679 10.5776C34.3182 10.5254 34.3791 10.4846 34.4466 10.4581C34.5062 10.4164 34.5737 10.3874 34.645 10.3729C34.7162 10.3584 34.7897 10.3588 34.8608 10.374C34.932 10.3891 34.9992 10.4188 35.0584 10.4611C35.1175 10.5034 35.1673 10.5575 35.2047 10.6199C35.3791 10.9641 35.5328 11.3184 35.665 11.6809" fill="#35A893"/>
<path d="M39.6605 13.4347C39.6347 13.5656 39.6105 13.7347 39.5664 13.8979C39.5297 14.0187 39.4552 14.1244 39.3538 14.1996C39.2525 14.2747 39.1297 14.3153 39.0035 14.3153C38.8773 14.3153 38.7545 14.2747 38.6531 14.1996C38.5518 14.1244 38.4773 14.0187 38.4406 13.8979C38.4009 13.42 38.2648 12.955 38.0406 12.531C37.959 12.3899 38.0906 12.0163 38.2428 11.8744C38.3562 11.7838 38.5002 11.7404 38.6448 11.7532C38.7893 11.7659 38.9235 11.8338 39.0193 11.9428C39.4107 12.3441 39.639 12.8767 39.6597 13.4369" fill="#35A893"/>
<path d="M33.8282 29.4746C34.2693 29.4746 34.6105 29.7893 34.4966 30.1268C34.3869 30.5022 34.3987 30.9027 34.5304 31.271C34.5574 31.3976 34.5376 31.5298 34.4746 31.643C34.4115 31.7561 34.3096 31.8426 34.1877 31.8864C34.0736 31.9458 33.9421 31.9627 33.8167 31.934C33.6912 31.9053 33.5801 31.8329 33.5032 31.7298C33.2834 31.4347 33.1614 31.0783 33.1542 30.7105C33.1469 30.3427 33.2548 29.9818 33.4627 29.6783C33.5735 29.591 33.6977 29.5222 33.8304 29.4746" fill="#35A893"/>
<path d="M36.3943 28.29C36.0816 28.1512 35.7785 27.9918 35.487 27.8128C35.4312 27.779 35.3833 27.7338 35.3464 27.68C35.3096 27.6263 35.2846 27.5653 35.2732 27.5011C35.2618 27.437 35.2642 27.3711 35.2803 27.3079C35.2963 27.2448 35.3257 27.1858 35.3664 27.1348C35.5293 26.9529 35.7517 26.8349 35.9936 26.8018C36.3222 26.8129 36.6498 26.8446 36.9745 26.8966C37.1173 26.8897 37.2581 26.9334 37.3719 27.02C37.4856 27.1066 37.5652 27.2306 37.5966 27.3701C37.6342 27.495 37.6235 27.6294 37.5665 27.7467C37.5096 27.864 37.4106 27.9556 37.2892 28.0032C36.998 28.1193 36.6989 28.2156 36.3943 28.29Z" fill="#35A893"/>
<path d="M36.3179 14.3044C36.7128 14.3008 36.9326 14.4839 36.9458 14.8287C36.9613 15.2537 36.4061 15.6714 35.8429 15.6589C35.7648 15.66 35.6874 15.645 35.6154 15.6149C35.5434 15.5847 35.4784 15.54 35.4245 15.4835C35.3705 15.427 35.3289 15.36 35.3021 15.2867C35.2753 15.2134 35.2639 15.1353 35.2686 15.0574C35.2605 14.6449 35.7275 14.3103 36.3201 14.3037" fill="#35A893"/>
<path d="M33.2334 26.702C33.1642 26.6873 32.9517 26.702 32.8473 26.6057C32.6814 26.4676 32.5759 26.2703 32.5532 26.0557C32.5665 25.8792 32.765 25.688 32.926 25.5615C33.0179 25.488 33.1988 25.5159 33.3393 25.5159C33.8363 25.5159 34.1312 25.7196 34.1532 26.0674C34.1775 26.452 33.8444 26.7086 33.229 26.7012" fill="#35A893"/>
<path d="M41.5583 24.9485C41.5774 25.1486 41.5227 25.3487 41.4044 25.5112C41.2862 25.6738 41.1126 25.7874 40.9164 25.8308C40.8311 25.8399 40.7449 25.8303 40.6637 25.8025C40.5826 25.7748 40.5085 25.7296 40.4466 25.6702C40.3848 25.6108 40.3366 25.5386 40.3056 25.4586C40.2746 25.3787 40.2615 25.2929 40.2671 25.2073C40.2469 25.008 40.3004 24.8082 40.4175 24.6457C40.5345 24.4831 40.707 24.369 40.9024 24.325C40.9878 24.3185 41.0737 24.3301 41.1544 24.3591C41.2351 24.388 41.3088 24.4336 41.3706 24.493C41.4325 24.5523 41.4812 24.6239 41.5135 24.7033C41.5459 24.7827 41.5611 24.868 41.5583 24.9536" fill="#35A893"/>
<path d="M31.9788 28.703C31.9646 28.9169 31.8793 29.1199 31.7365 29.2797C31.5937 29.4396 31.4015 29.5472 31.1906 29.5854C31.0327 29.5762 30.8846 29.5056 30.7781 29.3887C30.6716 29.2717 30.6151 29.1177 30.6207 28.9597C30.6371 28.7458 30.7249 28.5437 30.87 28.3858C31.0151 28.2279 31.2091 28.1234 31.4208 28.089C31.4993 28.087 31.5773 28.1019 31.6495 28.1327C31.7218 28.1635 31.7866 28.2095 31.8395 28.2675C31.8925 28.3255 31.9323 28.3942 31.9563 28.469C31.9804 28.5438 31.988 28.6228 31.9788 28.7008" fill="#35A893"/>
<path d="M41.0582 17.8192C41.052 17.9767 40.9863 18.1259 40.8744 18.2368C40.7625 18.3477 40.6127 18.4121 40.4553 18.417C40.2411 18.4128 40.0357 18.3316 39.8766 18.1881C39.7175 18.0447 39.6154 17.8487 39.5891 17.6362C39.5941 17.558 39.6149 17.4817 39.6502 17.4119C39.6855 17.342 39.7346 17.28 39.7945 17.2296C39.8544 17.1793 39.924 17.1416 39.9989 17.1188C40.0738 17.096 40.1525 17.0887 40.2303 17.0972C40.4304 17.1037 40.6221 17.1793 40.7728 17.311C40.9236 17.4427 41.0242 17.6226 41.0575 17.82" fill="#35A893"/>
<path d="M32.2804 13.104C32.2761 13.2595 32.2142 13.4077 32.1067 13.5201C31.9992 13.6324 31.8539 13.7009 31.6988 13.7121C31.4996 13.719 31.3039 13.6581 31.1437 13.5396C30.9835 13.421 30.8681 13.2517 30.8164 13.0592C30.8082 12.9748 30.8187 12.8897 30.8471 12.8099C30.8755 12.73 30.9212 12.6574 30.9809 12.5973C31.0406 12.5371 31.1128 12.4908 31.1924 12.4618C31.272 12.4327 31.357 12.4215 31.4414 12.429C31.6393 12.4203 31.8336 12.4842 31.9876 12.6086C32.1417 12.7331 32.2451 12.9095 32.2782 13.1048" fill="#35A893"/>
<path d="M16.4509 17.7541C16.3138 17.7514 16.1775 17.7324 16.045 17.6975C15.9194 17.6625 15.8107 17.5833 15.7389 17.4746C15.667 17.3658 15.6368 17.2348 15.6538 17.1056C15.67 16.8115 15.8295 16.5688 16.1126 16.5835C16.3676 16.6023 16.6229 16.5501 16.85 16.4326C17.0772 16.3152 17.2673 16.137 17.3994 15.9181C17.4957 15.7857 17.8781 15.7651 18.0832 15.832C18.4038 15.9372 18.4266 16.2563 18.3494 16.5563C18.2038 16.9338 17.9402 17.2543 17.5979 17.4701C17.2556 17.6859 16.8528 17.7855 16.4494 17.7541" fill="#35A893"/>
<path d="M10.5104 22.034C10.1534 22.0213 9.80333 21.932 9.48389 21.7721C9.16444 21.6123 8.8831 21.3856 8.65892 21.1075C8.6017 21.0435 8.55833 20.9683 8.53155 20.8867C8.50477 20.8051 8.49515 20.7189 8.5033 20.6334C8.51145 20.5479 8.53719 20.465 8.5789 20.39C8.62061 20.3149 8.6774 20.2493 8.74569 20.1972C8.97289 20.0119 9.2604 19.959 9.43392 20.1928C9.77731 20.5782 10.2567 20.8154 10.7714 20.8546C11.1236 20.9281 11.3508 21.0957 11.3207 21.4847C11.2935 21.8384 11.0266 22.0332 10.5119 22.0332" fill="#35A893"/>
<path d="M12.887 31.3306C12.5279 31.3188 12.1783 31.2122 11.8737 31.0218C11.5691 30.8313 11.3203 30.5637 11.1524 30.246C11.0587 30.1185 11.0181 29.9596 11.0391 29.8027C11.0601 29.6459 11.141 29.5033 11.2649 29.4048C11.3305 29.3506 11.4073 29.3117 11.4898 29.2908C11.5723 29.27 11.6584 29.2679 11.7418 29.2845C11.8253 29.3011 11.904 29.3361 11.9722 29.3869C12.0404 29.4378 12.0964 29.5032 12.1362 29.5784C12.2546 29.7365 12.4037 29.8692 12.5745 29.9685C12.7453 30.0678 12.9343 30.1317 13.1304 30.1563C13.2883 30.1682 13.4355 30.2409 13.541 30.3591C13.6465 30.4773 13.702 30.6318 13.6958 30.7901C13.7002 31.0989 13.3634 31.3254 12.887 31.3291" fill="#35A893"/>
<path d="M15.1429 10.3943C15.7496 10.3738 16.0576 10.762 15.8525 11.1914C15.7625 11.3669 15.7095 11.559 15.6969 11.7558C15.6842 11.9526 15.7122 12.1499 15.779 12.3355C15.8136 12.4071 15.8326 12.4853 15.8345 12.5648C15.8365 12.6444 15.8214 12.7234 15.7902 12.7966C15.7591 12.8698 15.7127 12.9355 15.654 12.9893C15.5954 13.043 15.5259 13.0836 15.4503 13.1083C15.3705 13.1402 15.2848 13.1546 15.199 13.1507C15.1132 13.1468 15.0292 13.1246 14.9526 13.0856C14.876 13.0466 14.8087 12.9918 14.755 12.9247C14.7014 12.8576 14.6627 12.7798 14.6415 12.6965C14.4974 12.3998 14.428 12.0723 14.4391 11.7427C14.4503 11.413 14.5417 11.091 14.7054 10.8046C14.8297 10.6452 14.9786 10.5067 15.1466 10.3943" fill="#35A893"/>
<path d="M10.353 13.3229C10.523 12.8864 10.7252 12.4632 10.9582 12.0567C11.002 11.9829 11.0607 11.919 11.1304 11.8689C11.2001 11.8188 11.2795 11.7837 11.3634 11.7657C11.4474 11.7478 11.5342 11.7474 11.6183 11.7646C11.7024 11.7817 11.7821 11.8161 11.8523 11.8656C12.1251 12.0619 12.1464 12.3663 11.9391 12.7678C11.816 12.983 11.7277 13.2162 11.6773 13.459C11.5788 14.1163 11.406 14.3501 10.981 14.2987C10.6089 14.2538 10.4471 13.9678 10.353 13.3229Z" fill="#35A893"/>
<path d="M17.0201 30.6883C16.8841 31.048 16.7193 31.3962 16.5274 31.7295C16.4564 31.8391 16.3451 31.9165 16.2176 31.9448C16.0901 31.9731 15.9566 31.9502 15.8458 31.881C15.7237 31.8353 15.6231 31.7457 15.5638 31.6296C15.5045 31.5135 15.4907 31.3795 15.5252 31.2538C15.6565 30.8841 15.668 30.4826 15.5583 30.106C15.5186 29.9472 15.7487 29.6089 15.926 29.5391C16.0418 29.5109 16.1629 29.5118 16.2783 29.5416C16.3938 29.5715 16.5001 29.6295 16.5877 29.7104C16.7739 30.0161 16.9192 30.3449 17.0201 30.6883Z" fill="#35A893"/>
<path d="M13.5819 28.3121C13.2619 28.2165 12.955 28.0819 12.6679 27.9113C12.583 27.8423 12.5206 27.7496 12.4884 27.645C12.4563 27.5404 12.456 27.4287 12.4875 27.3239C12.519 27.2191 12.5809 27.1261 12.6654 27.0566C12.7499 26.987 12.8531 26.9442 12.962 26.9334C13.3523 26.9594 13.744 26.915 14.1186 26.8025C14.2444 26.7481 14.598 26.9371 14.6628 27.0915C14.7059 27.2031 14.7217 27.3234 14.7089 27.4423C14.6961 27.5613 14.6551 27.6754 14.5892 27.7753C14.276 27.9932 13.9373 28.1734 13.5819 28.3121Z" fill="#35A893"/>
<path d="M14.7898 15.0279C14.7991 15.1056 14.7922 15.1844 14.7693 15.2592C14.7465 15.3341 14.7082 15.4033 14.6571 15.4626C14.606 15.5218 14.543 15.5697 14.4723 15.6032C14.4016 15.6368 14.3247 15.6552 14.2464 15.6573C13.756 15.694 13.1016 15.2286 13.106 14.8485C13.1112 14.6909 13.177 14.5413 13.2895 14.4308C13.402 14.3204 13.5527 14.2574 13.7104 14.2551C14.1876 14.2448 14.7685 14.6624 14.7898 15.0301" fill="#35A893"/>
<path d="M16.7267 26.7099C16.6199 26.7123 16.5131 26.7012 16.4091 26.6768C16.2763 26.6377 16.1539 26.5694 16.051 26.4768C15.9533 26.3905 15.8938 26.269 15.8855 26.1389C15.8772 26.0088 15.9209 25.8807 16.0069 25.7827C16.1457 25.6398 16.3245 25.5422 16.5197 25.5029C16.715 25.4635 16.9177 25.4842 17.101 25.5621C17.2024 25.6245 17.2903 25.7067 17.3594 25.8037C17.4285 25.9007 17.4774 26.0106 17.5032 26.1268C17.562 26.4504 17.3319 26.6452 17.0025 26.6886C16.9179 26.6996 16.8326 26.7011 16.726 26.7092" fill="#35A893"/>
<path d="M9.78254 25.1854C9.78841 25.2707 9.77607 25.3563 9.74633 25.4365C9.71659 25.5167 9.67014 25.5896 9.61006 25.6505C9.54997 25.7113 9.47763 25.7587 9.39784 25.7894C9.31805 25.8202 9.23263 25.8336 9.14725 25.8288C8.95045 25.7894 8.77511 25.6788 8.65477 25.5182C8.53443 25.3575 8.47756 25.1582 8.49504 24.9582C8.49278 24.873 8.508 24.7882 8.53975 24.7091C8.57151 24.63 8.61913 24.5582 8.67969 24.4982C8.74025 24.4382 8.81245 24.3912 8.89185 24.3602C8.97126 24.3292 9.05617 24.3147 9.14137 24.3178C9.33879 24.353 9.51524 24.4624 9.63448 24.6236C9.75372 24.7849 9.8067 24.9856 9.78254 25.1847" fill="#35A893"/>
<path d="M19.4281 29.009C19.4261 29.0873 19.4085 29.1644 19.3764 29.2358C19.3442 29.3072 19.2981 29.3715 19.2408 29.4248C19.1835 29.4782 19.1161 29.5195 19.0425 29.5465C18.969 29.5735 18.8908 29.5855 18.8126 29.5818C18.6047 29.5311 18.4195 29.4125 18.2864 29.2449C18.1533 29.0773 18.0797 28.8701 18.0773 28.6561C18.0742 28.5773 18.0883 28.4988 18.1187 28.426C18.1491 28.3533 18.1949 28.288 18.2531 28.2348C18.3113 28.1816 18.3804 28.1417 18.4555 28.118C18.5307 28.0942 18.6102 28.0871 18.6884 28.0973C18.8991 28.1384 19.0886 28.2524 19.2239 28.4192C19.3591 28.586 19.4314 28.7943 19.4281 29.009Z" fill="#35A893"/>
<path d="M10.4672 17.6815C10.4192 17.889 10.3033 18.0746 10.1379 18.2087C9.97244 18.3429 9.76693 18.4179 9.55397 18.422C9.39757 18.4041 9.25374 18.3276 9.15143 18.208C9.04912 18.0883 8.9959 17.9344 9.0025 17.7771C9.0554 17.5845 9.16864 17.414 9.32559 17.2905C9.48255 17.1671 9.67495 17.0971 9.87456 17.0911C9.95264 17.0888 10.0304 17.1024 10.103 17.131C10.1757 17.1597 10.2418 17.2029 10.2972 17.2579C10.3526 17.313 10.3963 17.3787 10.4255 17.4511C10.4548 17.5236 10.4689 17.6012 10.4672 17.6793" fill="#35A893"/>
<path d="M19.234 12.9657C19.2186 13.1671 19.1241 13.3542 18.9712 13.4862C18.8182 13.6182 18.6193 13.6843 18.4178 13.6701C18.3399 13.6785 18.261 13.6713 18.1859 13.6488C18.1108 13.6263 18.041 13.589 17.9805 13.5391C17.92 13.4893 17.8701 13.4278 17.8337 13.3584C17.7973 13.2889 17.7752 13.2129 17.7686 13.1348C17.7976 12.9363 17.8977 12.7552 18.0502 12.6249C18.2028 12.4947 18.3974 12.4243 18.598 12.4267C18.676 12.4153 18.7555 12.4207 18.8313 12.4424C18.9071 12.4641 18.9774 12.5017 19.0376 12.5527C19.0978 12.6037 19.1464 12.6669 19.1802 12.7381C19.2141 12.8093 19.2324 12.8869 19.234 12.9657Z" fill="#35A893"/>
</g>
</g>
<defs>
<clipPath id="clip0_2184_21604">
<rect width="50" height="50" fill="white" transform="translate(-0.0100098 0.166016)"/>
</clipPath>
</defs>
</svg>
