<svg width="50" height="51" viewBox="0 0 50 51" fill="none" xmlns="http://www.w3.org/2000/svg">
<g clip-path="url(#clip0_2184_21317)">
<path d="M30.2521 20.6817C31.8123 16.2809 31.6109 14.226 31.2743 12.4979C30.9732 10.9548 30.2502 9.52556 29.1854 8.36889C28.6592 7.8233 28.0259 7.39233 27.3253 7.10302C26.6246 6.81371 25.8718 6.6723 25.1139 6.68765H24.5531C23.7956 6.67264 23.0432 6.81422 22.343 7.10352C21.6429 7.39282 21.01 7.82361 20.484 8.36889C19.4212 9.52517 18.6989 10.9529 18.397 12.4942C18.0591 14.2236 17.8602 16.2834 19.4204 20.678C19.7322 21.514 20.0872 22.3333 20.484 23.1325C20.528 23.2266 20.5978 23.3064 20.6852 23.3626C20.7727 23.4187 20.8742 23.449 20.9781 23.45C21.0643 23.4501 21.1492 23.4288 21.2252 23.3882C21.3582 23.3148 21.458 23.1932 21.504 23.0484C21.55 22.9036 21.5386 22.7466 21.4722 22.61C21.0936 21.8505 20.7547 21.0718 20.4568 20.2771C18.998 16.1654 19.1752 14.2921 19.481 12.7258C19.6299 12.0097 19.8755 11.3171 20.211 10.6672C20.2147 10.8426 20.2246 11.0081 20.2382 11.1613C20.4747 13.7381 21.2635 15.9239 23.051 18.9584C23.1522 19.1289 23.2597 19.3074 23.3734 19.4896C23.4118 19.5511 23.4622 19.6042 23.5216 19.6457C23.581 19.6873 23.6482 19.7164 23.7192 19.7313C23.7901 19.7462 23.8633 19.7467 23.9345 19.7327C24.0056 19.7186 24.0731 19.6904 24.1331 19.6496C24.2556 19.563 24.3409 19.4333 24.372 19.2865C24.403 19.1397 24.3775 18.9866 24.3004 18.8578C24.1911 18.6824 24.0886 18.5119 23.9916 18.3488C22.2795 15.4459 21.5575 13.4694 21.3358 11.0507C21.2939 10.3936 21.3134 9.73396 21.3938 9.08042C22.2432 8.26803 23.3791 7.82404 24.5543 7.84512H25.1151C26.2903 7.82404 27.4262 8.26803 28.2756 9.08042C28.3552 9.73424 28.374 10.394 28.3318 11.0513C28.1107 13.4651 27.3905 15.4434 25.676 18.3482C25.3418 18.9164 24.9187 19.5779 24.3912 20.3556L21.4883 24.3987C17.8003 29.3071 13.4354 34.5442 13.3916 34.5973C13.3242 34.6791 13.2797 34.7772 13.2625 34.8818C13.2454 34.9864 13.2563 35.0937 13.294 35.1927L16.4038 43.3765C16.439 43.4732 16.5004 43.5583 16.5811 43.6222C16.6618 43.6861 16.7587 43.7264 16.8609 43.7384C16.8798 43.7395 16.8988 43.7395 16.9177 43.7384C17.0105 43.7379 17.1015 43.7137 17.1824 43.6682C17.2632 43.6227 17.3311 43.5574 17.3797 43.4784C17.4223 43.4105 21.6866 36.6374 25.3152 30.3096L28.2293 25.0305C28.9955 23.6249 29.6715 22.1719 30.2533 20.6804L30.2521 20.6817ZM24.361 29.7308C21.5396 34.6492 18.3284 39.8442 17.0375 41.9176L14.4434 35.0945C15.3822 33.9605 19.1301 29.4121 22.3586 25.1121L22.3654 25.1028L25.2844 21.0436C25.8347 20.2308 26.2726 19.5483 26.6179 18.9591C28.409 15.9264 29.1941 13.7412 29.4306 11.1619C29.4448 11.0075 29.4541 10.8413 29.4578 10.6678C29.7933 11.3177 30.0389 12.0103 30.1879 12.7264C30.4967 14.2927 30.6709 16.1661 29.2114 20.2771C28.652 21.713 28.0024 23.1121 27.2664 24.466L24.361 29.7308Z" fill="black"/>
<path d="M36.5736 34.4539C36.5391 34.4162 33.1469 30.6683 29.4262 25.981C29.3292 25.8589 29.1876 25.7803 29.0326 25.7626C28.8776 25.7449 28.7219 25.7894 28.5998 25.8865C28.4777 25.9836 28.3991 26.1252 28.3814 26.2801C28.3637 26.4351 28.4083 26.5908 28.5053 26.7129C31.6739 30.7017 34.6077 34.0203 35.4563 34.9702L32.701 41.9009C31.5312 40.1294 28.8611 36.0381 26.0631 31.4058C25.9826 31.2722 25.8522 31.1761 25.7007 31.1386C25.5493 31.1012 25.3892 31.1254 25.2556 31.206C25.122 31.2866 25.0259 31.417 24.9884 31.5684C24.9509 31.7199 24.9752 31.88 25.0558 32.0136C28.7938 38.2049 32.3107 43.4363 32.344 43.4882C32.3978 43.568 32.4704 43.6334 32.5553 43.6787C32.6403 43.7239 32.7351 43.7476 32.8313 43.7476C32.8519 43.7476 32.8725 43.7476 32.8931 43.7476C32.9998 43.7358 33.1013 43.695 33.1865 43.6297C33.2718 43.5644 33.3375 43.477 33.3767 43.377L36.6811 35.0697C36.7232 34.967 36.7353 34.8544 36.7161 34.7451C36.6969 34.6358 36.647 34.5342 36.5724 34.452L36.5736 34.4539Z" fill="black"/>
<path d="M28.0118 11.2423C28.0448 11.1722 28.0636 11.0963 28.0672 11.0189C28.0708 10.9415 28.0591 10.8641 28.0327 10.7913C28.0062 10.7185 27.9657 10.6516 27.9134 10.5945C27.861 10.5373 27.7979 10.4911 27.7277 10.4585C26.8708 10.057 25.9371 9.8463 24.9909 9.84082C23.9971 9.85167 23.0185 10.0858 22.1275 10.5258C22.0094 10.5847 21.9146 10.6818 21.8584 10.8012C21.8023 10.9207 21.7881 11.0556 21.8181 11.1841C21.8481 11.3127 21.9205 11.4273 22.0237 11.5096C22.1269 11.5919 22.2549 11.637 22.3869 11.6376C22.4749 11.6366 22.5615 11.6154 22.6401 11.5758C23.3524 11.225 24.1343 11.0383 24.9283 11.0296C25.7223 11.0208 26.5081 11.1901 27.228 11.5251C27.2981 11.5584 27.3741 11.5774 27.4515 11.5811C27.529 11.5847 27.6065 11.573 27.6794 11.5465C27.7523 11.52 27.8192 11.4793 27.8763 11.4268C27.9333 11.3742 27.9794 11.3109 28.0118 11.2404V11.2423Z" fill="#35A893"/>
</g>
<defs>
<clipPath id="clip0_2184_21317">
<rect width="42" height="42" fill="white" transform="translate(3.98999 4.21582)"/>
</clipPath>
</defs>
</svg>
