<svg width="42" height="43" viewBox="0 0 42 43" fill="none" xmlns="http://www.w3.org/2000/svg">
<g clip-path="url(#clip0_2184_21111)">
<g clip-path="url(#clip1_2184_21111)">
<path d="M2.03184 7.36248H2.15758C7.3164 7.80365 11.2804 8.18821 15.4951 8.88748L15.8098 8.95071C17.823 9.26836 19.8363 9.58601 21.2833 10.9198C21.7511 11.363 22.1726 11.8525 22.5414 12.3809C23.548 13.5882 24.6179 14.9853 26.4385 15.4301C26.7479 15.5036 27.0639 15.5462 27.3818 15.5573C28.2161 15.5388 29.0262 15.2735 29.7098 14.7948C30.3028 14.4245 30.8111 13.9332 31.2014 13.353C31.5916 12.7728 31.855 12.1168 31.9745 11.4279C32.2138 9.89577 31.9116 8.32812 31.1198 6.99478C30.3279 5.66145 29.0961 4.64584 27.6363 4.12277C26.5926 3.76979 25.5183 3.51452 24.4274 3.36027C19.2068 2.78601 13.6076 2.15365 7.25317 1.52204L3.8539 1.32718C3.35096 1.32718 2.84729 1.26395 2.34435 1.26395C2.23904 1.25803 2.1336 1.27313 2.03419 1.30837C1.93477 1.34361 1.84337 1.39828 1.7653 1.4692C1.68723 1.54012 1.62405 1.62587 1.57945 1.72145C1.53485 1.81703 1.50972 1.92054 1.50552 2.02593C1.50133 2.13132 1.51815 2.23649 1.55501 2.33531C1.59187 2.43414 1.64802 2.52464 1.72021 2.60154C1.7924 2.67844 1.87917 2.74021 1.97546 2.78324C2.07176 2.82627 2.17566 2.84971 2.28111 2.85218C2.78405 2.85218 3.28772 2.91542 3.79067 2.91542C4.92302 2.97865 6.05537 3.04262 7.18773 3.16983C13.4789 3.80512 19.1414 4.44042 24.2995 5.01248C25.2869 5.13868 26.2574 5.37293 27.1936 5.71101C28.2968 6.12647 29.2237 6.9083 29.8192 7.92561C30.4148 8.94291 30.6427 10.1339 30.4649 11.2992C30.2552 12.2358 29.6917 13.0551 28.8921 13.586C28.6189 13.7963 28.3004 13.9402 27.962 14.0063C27.6236 14.0724 27.2745 14.0589 26.9421 13.9669C25.6186 13.586 24.7363 12.5698 23.8598 11.4257C23.4287 10.8518 22.9442 10.32 22.4127 9.83748C20.648 8.18601 18.2605 7.80439 16.1216 7.42351L15.8068 7.36027C11.4686 6.59777 7.3142 6.21689 2.27743 5.77204C2.08846 5.77204 1.90023 5.77204 1.83626 5.83527C1.73198 5.84723 1.63113 5.87988 1.53963 5.93131C1.44813 5.98273 1.36781 6.0519 1.30338 6.13475C1.23894 6.21761 1.19168 6.31249 1.16438 6.41384C1.13707 6.51519 1.13026 6.62096 1.14434 6.72498C1.17755 6.92601 1.28902 7.10571 1.45438 7.22477C1.61973 7.34383 1.82551 7.39255 2.02669 7.36027L2.03184 7.36248Z" fill="black"/>
<path d="M36.1307 12.571H36.5079C37.0502 12.5874 37.5809 12.4121 38.0067 12.0758C38.4325 11.7396 38.7261 11.264 38.8358 10.7327C39.0847 9.80013 39.2115 8.83916 39.2131 7.87391C39.2309 6.2013 38.7962 4.55498 37.955 3.10921C37.6391 2.56159 37.16 2.12636 36.5847 1.8644C36.0093 1.60244 35.3665 1.52684 34.7461 1.64818C34.3864 1.67134 34.0376 1.7818 33.7302 1.97C33.4227 2.1582 33.1657 2.41848 32.9814 2.72833C32.8445 3.05688 32.7901 3.41396 32.8231 3.76837C32.856 4.12278 32.9753 4.46373 33.1704 4.76141C34.0556 6.32644 34.4707 8.11351 34.366 9.90847C34.2432 11.3644 34.8726 12.3813 36.1307 12.571ZM34.366 3.48641C34.5326 3.3701 34.7291 3.304 34.9322 3.29597H35.2468C35.516 3.29024 35.7817 3.35826 36.0149 3.49266C36.2482 3.62707 36.4403 3.82273 36.5704 4.05847C37.2821 5.22474 37.6525 6.56724 37.6395 7.93347C37.6278 8.76864 37.5222 9.59984 37.3248 10.4114C37.2699 10.6259 37.1351 10.8112 36.9479 10.9294C36.7607 11.0475 36.5354 11.0895 36.3182 11.0467C36.1292 11.0467 35.8145 10.9835 35.877 10.221C36.0489 8.09454 35.5661 5.96641 34.4932 4.12244C34.4261 3.91646 34.3838 3.70317 34.3674 3.48715L34.366 3.48641Z" fill="#35A893"/>
<path d="M37.7665 16.384C37.141 15.8935 36.4231 15.5339 35.6558 15.3264C34.8884 15.119 34.0871 15.0681 33.2996 15.1766C31.7192 15.4398 30.2159 16.047 28.896 16.9553C28.3493 17.2753 27.8775 17.7085 27.5121 18.2259C27.2655 18.5714 27.0934 18.9644 27.0067 19.38C26.92 19.7955 26.9206 20.2245 27.0085 20.6398C27.1536 21.0706 27.3849 21.4674 27.6883 21.8059C27.9917 22.1444 28.3608 22.4176 28.7732 22.609C29.8916 23.0563 30.932 23.6783 31.8555 24.4516C32.1449 24.7323 32.4179 25.0293 32.6732 25.3413C32.9953 25.7656 33.1915 26.2719 33.2393 26.8023V26.8656C33.4015 27.4502 33.5275 28.0442 33.6165 28.6443C33.8368 29.8626 33.9842 31.0929 34.0577 32.3288C34.121 32.9009 34.1835 38.2369 34.1835 40.2068C34.185 40.4072 34.2648 40.5992 34.4059 40.7417C34.5469 40.8841 34.7381 40.9658 34.9386 40.9693C35.0427 40.9655 35.145 40.9411 35.2395 40.8973C35.3341 40.8536 35.419 40.7915 35.4893 40.7147C35.5596 40.6378 35.6138 40.5477 35.649 40.4497C35.6841 40.3516 35.6993 40.2475 35.6937 40.1435C35.6937 39.8259 35.6305 32.9009 35.568 32.1391C35.4788 30.8385 35.3108 29.5444 35.0651 28.2641C34.9551 27.6416 34.8078 27.0263 34.6239 26.4215V26.3582C34.4762 25.6456 34.1751 24.9736 33.7415 24.3891C33.4445 23.9757 33.1073 23.5927 32.7349 23.2457C31.6921 22.3788 30.5259 21.6723 29.2746 21.1494C29.0616 21.0611 28.8683 20.931 28.7063 20.7668C28.5443 20.6027 28.4168 20.4077 28.3313 20.1935C28.3002 20.0058 28.3064 19.8138 28.3495 19.6284C28.3927 19.4431 28.4719 19.2681 28.5827 19.1134C28.8283 18.7904 29.1266 18.5112 29.4651 18.2876C30.6227 17.5023 31.9286 16.9619 33.3026 16.6994C33.8653 16.596 34.4438 16.6162 34.9979 16.7588C35.5521 16.9014 36.0685 17.1629 36.5114 17.5251C37.7695 18.6053 38.021 20.5744 38.1474 22.4803L39.2798 40.2009C39.2813 40.4014 39.3611 40.5933 39.5022 40.7358C39.6433 40.8783 39.8345 40.9599 40.0349 40.9634H40.0982C40.2023 40.9596 40.3046 40.9352 40.3991 40.8915C40.4936 40.8477 40.5785 40.7857 40.6488 40.7088C40.7191 40.6319 40.7734 40.5418 40.8085 40.4438C40.8436 40.3457 40.8589 40.2416 40.8533 40.1376L39.721 22.417C39.7798 20.1957 39.4687 17.9082 37.7665 16.384Z" fill="black"/>
<path d="M26.6328 24.1338C26.2596 24.0385 25.8705 24.0232 25.4909 24.0888C25.1114 24.1545 24.7501 24.2996 24.4306 24.5146C24.1116 24.7108 23.8358 24.9696 23.6195 25.2753C23.4033 25.581 23.2512 25.9273 23.1725 26.2933L22.921 27.5007C22.8437 27.7694 22.8015 28.0469 22.7953 28.3264L22.6695 29.3426C22.6148 29.6142 22.5935 29.8915 22.6063 30.1683L22.5431 30.8036C22.5431 31.1213 22.4798 31.3757 22.4798 31.6933V33.1543C22.4695 33.4943 22.4907 33.8345 22.5431 34.1705C22.5501 34.5338 22.5922 34.8955 22.6688 35.2507V35.5051C22.732 35.8227 22.732 36.1404 22.7945 36.461C22.857 36.7816 22.9203 37.1595 22.9835 37.4168L23.4247 39.3227C23.5168 39.6866 23.7278 40.0092 24.0242 40.2394C24.3206 40.4696 24.6854 40.5941 25.0607 40.5933H25.1239C25.3427 40.5849 25.5571 40.5294 25.7525 40.4307C25.9479 40.332 26.1197 40.1923 26.2563 40.0213C26.5569 39.6928 26.7155 39.2588 26.6975 38.8139L26.6342 37.4168V36.2095C26.624 35.9537 26.6452 35.6976 26.6975 35.447V35.1926C26.7084 34.8925 26.7505 34.5943 26.8232 34.3029C26.8343 34.0446 26.8765 33.7886 26.9489 33.5404L27.0122 33.286L27.2011 32.3301C27.2644 32.1396 27.3269 31.8889 27.3901 31.6948L28.0195 29.7889C28.0766 29.5875 28.1612 29.395 28.271 29.2168L28.6482 28.1367L28.8372 27.5647C28.9973 26.8174 28.8552 26.0371 28.4418 25.3942C28.0285 24.7514 27.3776 24.2982 26.6313 24.1338H26.6328ZM27.2622 27.247C27.2467 27.3425 27.2029 27.4311 27.1364 27.5014L26.7592 28.5176C26.6645 28.7249 26.5806 28.9369 26.5078 29.1529L26.1916 29.9757C26.1283 30.1661 26.0658 30.4169 26.0026 30.611L25.8136 31.183C25.7504 31.4374 25.6879 31.6911 25.6247 31.8816C25.5614 32.1992 25.4989 32.5169 25.4357 32.8977L25.3725 33.2154C25.3045 33.486 25.2624 33.7625 25.2467 34.0411C25.1835 34.3588 25.1835 34.6764 25.121 34.997V35.2514C25.121 35.569 25.0578 35.8235 25.0578 36.0771V37.3477L25.121 38.8088C25.1145 38.857 25.0923 38.9017 25.0578 38.936C24.9945 38.936 24.9945 38.8727 24.932 38.8727L24.4908 37.0301C24.4276 36.7757 24.3651 36.458 24.3019 36.1404C24.2386 35.886 24.2386 35.5683 24.1761 35.2507V35.0602C24.1238 34.7242 24.1026 34.384 24.1129 34.044C24.1129 33.7264 24.0497 33.4088 24.0497 33.0882V31.7544C24.0394 31.4776 24.0606 31.2006 24.1129 30.9286L24.1761 30.3566C24.1761 30.1021 24.2394 29.8485 24.2394 29.594L24.3651 28.6382C24.4284 28.3838 24.4283 28.1301 24.4908 27.8757L24.7423 26.7323C24.8318 26.4007 25.0315 26.1095 25.3085 25.9066C25.5158 25.7773 25.7562 25.7111 26.0004 25.7161C26.1092 25.7062 26.2186 25.7282 26.3151 25.7793C26.481 25.7991 26.6404 25.8554 26.782 25.944C26.9236 26.0326 27.0438 26.1514 27.1341 26.292C27.2244 26.4325 27.2825 26.5913 27.3043 26.7569C27.326 26.9225 27.3109 27.0909 27.26 27.2499L27.2622 27.247Z" fill="#35A893"/>
</g>
</g>
<defs>
<clipPath id="clip0_2184_21111">
<rect width="42" height="42" fill="white" transform="translate(-0.0100098 0.116211)"/>
</clipPath>
<clipPath id="clip1_2184_21111">
<rect width="50" height="50" fill="white" transform="translate(-4.01001 -3.88379)"/>
</clipPath>
</defs>
</svg>
