<svg width="50" height="51" viewBox="0 0 50 51" fill="none" xmlns="http://www.w3.org/2000/svg">
<g clip-path="url(#clip0_2184_21641)">
<path d="M26.5217 20.593C26.3541 19.6582 25.9924 18.769 25.4599 17.9827C25.2435 17.6751 24.9648 17.4165 24.6419 17.2237C24.319 17.0309 23.9591 16.9082 23.5857 16.8636C23.4314 16.0014 23.0307 15.2023 22.4321 14.5629C21.8334 13.9235 21.0624 13.4712 20.2121 13.2606V8.34961C20.1606 7.77216 19.8948 7.23493 19.467 6.84364C19.0392 6.45235 18.4805 6.23535 17.9007 6.23535C17.321 6.23535 16.7623 6.45235 16.3345 6.84364C15.9067 7.23493 15.6409 7.77216 15.5893 8.34961V13.2599C14.7326 13.4701 13.9538 13.921 13.345 14.5594C12.7361 15.1978 12.3226 15.9971 12.1533 16.8628C11.7574 16.9095 11.3773 17.0457 11.0417 17.261C10.7062 17.4763 10.424 17.7651 10.2166 18.1055C9.7407 18.8694 9.40249 19.7108 9.21729 20.5915C8.68747 20.6995 8.21134 20.9875 7.8697 21.4066C7.52807 21.8257 7.34198 22.3501 7.34302 22.8908V41.1025C7.34312 41.4055 7.40304 41.7054 7.51936 41.985C7.63568 42.2647 7.8061 42.5187 8.02083 42.7323C8.23557 42.946 8.49039 43.1151 8.77066 43.23C9.05094 43.3449 9.35115 43.4033 9.65406 43.4018H26.0217C26.3246 43.4033 26.6248 43.3449 26.9051 43.23C27.1854 43.1151 27.4402 42.946 27.6549 42.7323C27.8696 42.5187 28.0401 42.2647 28.1564 41.985C28.2727 41.7054 28.3326 41.4055 28.3327 41.1025V22.8305C28.3813 22.2951 28.2192 21.7619 27.8809 21.3441C27.5426 20.9262 27.0548 20.6568 26.521 20.593H26.5217ZM27.2092 37.4989H8.65552V29.357C9.21729 28.7356 11.8415 26.0011 16.5893 27.6165C20.007 28.7569 23.6451 29.0763 27.2092 28.5489V37.4989ZM16.3393 14.379C16.4838 14.3535 16.614 14.2765 16.706 14.1622C16.7979 14.048 16.8453 13.9042 16.8394 13.7577V8.34961C16.8884 8.104 17.021 7.88298 17.2147 7.72416C17.4083 7.56534 17.651 7.47854 17.9015 7.47854C18.1519 7.47854 18.3946 7.56534 18.5883 7.72416C18.782 7.88298 18.9146 8.104 18.9636 8.34961V13.757C18.9693 13.9004 19.021 14.0383 19.1111 14.1501C19.2011 14.262 19.3247 14.342 19.4636 14.3783C20.1307 14.4731 20.7564 14.7579 21.2659 15.1988C21.7755 15.6396 22.1473 16.2178 22.3371 16.8643H13.4658C13.6339 16.2062 13.9992 15.6153 14.5129 15.1709C15.0266 14.7265 15.6639 14.4499 16.3393 14.3783V14.379ZM11.2783 18.7283C11.418 18.5283 11.6056 18.3666 11.824 18.258C12.0424 18.1495 12.2846 18.0975 12.5283 18.107H23.2732C23.502 18.0939 23.7304 18.1382 23.9376 18.236C24.1449 18.3337 24.3245 18.4817 24.4599 18.6665C24.8445 19.2544 25.1186 19.9075 25.2688 20.5937H10.5298C10.7035 19.9441 10.9554 19.318 11.2798 18.729L11.2783 18.7283ZM9.52905 21.7739C9.71655 21.8364 26.0827 21.8364 26.271 21.7739C26.5241 21.817 26.7549 21.9452 26.9253 22.1373C27.0956 22.3295 27.1953 22.574 27.2077 22.8305V27.3055C23.7933 27.8263 20.3039 27.5289 17.0268 26.4378C12.904 25.0702 10.093 26.5003 8.65626 27.6187V22.7658C8.67628 22.5283 8.77203 22.3035 8.92943 22.1245C9.08682 21.9456 9.29753 21.8219 9.53052 21.7717L9.52905 21.7739ZM26.0842 42.0996H9.71655C9.57712 42.1012 9.43877 42.0749 9.30958 42.0225C9.18039 41.97 9.06295 41.8923 8.96411 41.7939C8.86527 41.6956 8.78701 41.5785 8.73391 41.4496C8.6808 41.3206 8.6539 41.1824 8.65479 41.043V38.8033H27.2085V41.0408C27.2074 41.185 27.177 41.3275 27.1193 41.4597C27.0615 41.5919 26.9776 41.7109 26.8725 41.8097C26.7674 41.9085 26.6433 41.9849 26.5078 42.0344C26.3723 42.0838 26.2282 42.1053 26.0842 42.0974V42.0996Z" fill="black"/>
<path d="M38.0158 35.5721C38.1574 35.9657 38.4409 36.2923 38.8107 36.4878C39.1806 36.6832 39.6101 36.7335 40.0151 36.6287C40.2621 36.5739 40.4939 36.4648 40.6935 36.3093C40.8932 36.1538 41.0557 35.9558 41.1693 35.7297C41.2829 35.5035 41.3448 35.255 41.3504 35.002C41.3561 34.749 41.3053 34.4979 41.2018 34.267L40.0776 31.5942C39.9886 31.3514 39.9536 31.0921 39.9752 30.8344C39.9968 30.5767 40.0744 30.3268 40.2026 30.1022L40.2651 30.0397C40.3281 29.88 40.3281 29.7024 40.2651 29.5427L36.0791 18.4772L37.0166 18.1096C37.2809 18.0052 37.5219 17.8494 37.7257 17.6512C37.9294 17.453 38.0917 17.2163 38.2034 16.9549C38.315 16.6935 38.3736 16.4125 38.3758 16.1283C38.3781 15.8441 38.3239 15.5622 38.2165 15.2991C38.1091 15.0359 37.9504 14.7967 37.7499 14.5953C37.5493 14.3939 37.3108 14.2342 37.0482 14.1257C36.7855 14.0171 36.5039 13.9617 36.2196 13.9627C35.9354 13.9638 35.6542 14.0212 35.3923 14.1317L32.8313 7.60592C32.6467 7.15019 32.3737 6.73554 32.028 6.38593C31.6823 6.03633 31.2707 5.7587 30.817 5.56909C30.3634 5.37948 29.8767 5.28165 29.385 5.28125C28.8933 5.28085 28.4065 5.37789 27.9525 5.56675C27.4985 5.75562 27.0865 6.03258 26.7402 6.38162C26.3939 6.73066 26.1202 7.14486 25.935 7.60029C25.7497 8.05573 25.6565 8.54336 25.6608 9.03502C25.6651 9.52668 25.7667 10.0126 25.9599 10.4647L28.5835 17.053C28.3191 17.1574 28.0781 17.3132 27.8743 17.5114C27.6706 17.7096 27.5083 17.9463 27.3967 18.2077C27.285 18.4691 27.2264 18.7501 27.2242 19.0343C27.2219 19.3185 27.2761 19.6004 27.3835 19.8635C27.491 20.1267 27.6496 20.3659 27.8501 20.5673C28.0507 20.7687 28.2892 20.9283 28.5519 21.0369C28.8146 21.1455 29.0962 21.2009 29.3804 21.1998C29.6646 21.1988 29.9458 21.1414 30.2077 21.0309L31.1445 20.6581L35.3298 31.6596C35.36 31.7574 35.4176 31.8445 35.4958 31.9106C35.574 31.9767 35.6695 32.0189 35.771 32.0324C36.025 32.0914 36.2629 32.2055 36.468 32.3666C36.6731 32.5277 36.8402 32.7319 36.9577 32.9647L38.0158 35.5721ZM27.082 9.96475C26.8357 9.35343 26.8422 8.66939 27.0998 8.0628C27.3575 7.45621 27.8453 6.97666 28.4563 6.72945C29.0617 6.48741 29.7371 6.48798 30.3421 6.73104C30.9471 6.97411 31.4351 7.44098 31.7048 8.0346L34.2658 14.6228L29.707 16.4875L27.082 9.96475ZM29.643 19.7853C29.5317 19.8383 29.4107 19.8679 29.2875 19.8725C29.1643 19.8771 29.0414 19.8565 28.9265 19.8119C28.8115 19.7674 28.7068 19.6999 28.6188 19.6135C28.5308 19.5272 28.4614 19.4238 28.4147 19.3097C28.368 19.1955 28.3451 19.0731 28.3474 18.9498C28.3497 18.8266 28.377 18.7051 28.4279 18.5927C28.4787 18.4804 28.5519 18.3796 28.643 18.2966C28.7341 18.2135 28.8412 18.1499 28.9577 18.1096C29.0202 18.1096 36.3291 15.064 35.8916 15.2508C36.0018 15.2057 36.1198 15.1827 36.2389 15.1833C36.358 15.1838 36.4758 15.2078 36.5856 15.2538C36.6955 15.2999 36.7951 15.3671 36.879 15.4517C36.9628 15.5362 37.0292 15.6365 37.0743 15.7467C37.1194 15.857 37.1423 15.975 37.1418 16.0941C37.1413 16.2132 37.1173 16.331 37.0712 16.4408C37.0252 16.5506 36.9579 16.6503 36.8734 16.7342C36.7888 16.818 36.6885 16.8844 36.5783 16.9295L29.643 19.7853ZM36.3268 30.8486L32.2092 20.0949L34.9577 18.9758L39.0776 29.7272C38.8886 30.0889 38.7797 30.487 38.7581 30.8945C38.7365 31.302 38.8029 31.7094 38.9526 32.089L40.0768 34.7618C40.1206 34.8942 40.1126 35.0382 40.0547 35.165C39.9967 35.2918 39.8931 35.392 39.7643 35.4456C39.6491 35.4674 39.53 35.4482 39.4274 35.3914C39.3248 35.3346 39.2453 35.2438 39.2026 35.1346L38.0783 32.4618C37.9145 32.0858 37.6745 31.7479 37.3734 31.4695C37.0723 31.191 36.7167 30.9781 36.3291 30.8442L36.3268 30.8486Z" fill="black"/>
<path d="M39.2019 37.9305C38.7607 38.3658 36.6409 40.5408 36.6409 42.0327C36.6409 42.828 36.9568 43.5907 37.5191 44.153C38.0814 44.7154 38.8441 45.0313 39.6394 45.0313C40.4347 45.0313 41.1973 44.7154 41.7597 44.153C42.322 43.5907 42.6379 42.828 42.6379 42.0327C42.6379 40.5408 40.5136 38.3041 40.0769 37.9305C40.0203 37.8716 39.9523 37.8247 39.8772 37.7927C39.802 37.7606 39.7211 37.7441 39.6394 37.7441C39.5577 37.7441 39.4768 37.7606 39.4016 37.7927C39.3264 37.8247 39.2585 37.8716 39.2019 37.9305ZM39.6431 43.835C39.4138 43.8359 39.1866 43.7916 38.9745 43.7046C38.7625 43.6176 38.5696 43.4896 38.4071 43.3279C38.2446 43.1662 38.1156 42.974 38.0275 42.7624C37.9394 42.5507 37.894 42.3238 37.8938 42.0945C37.8938 41.4732 38.8306 40.2298 39.6431 39.3004C40.4519 40.2328 41.3923 41.4754 41.3923 42.0945C41.3925 42.324 41.3474 42.5513 41.2595 42.7633C41.1715 42.9753 41.0426 43.1678 40.8801 43.3298C40.7175 43.4918 40.5246 43.6201 40.3123 43.7073C40.1 43.7945 39.8726 43.8389 39.6431 43.8379V43.835Z" fill="#35A893"/>
</g>
<defs>
<clipPath id="clip0_2184_21641">
<rect width="50" height="50" fill="white" transform="translate(-0.0100098 0.166016)"/>
</clipPath>
</defs>
</svg>
