<svg width="50" height="47" viewBox="0 0 50 47" fill="none" xmlns="http://www.w3.org/2000/svg">
<path d="M50 5.09063C50 5.12396 49.9833 5.19062 49.95 5.29062L49.9 5.49062C49.7333 6.29062 49.4667 6.99062 49.1 7.59063C48.6667 8.35729 48.1167 8.94062 47.45 9.34063C46.9167 9.60729 46.3833 9.79062 45.85 9.89062C45.15 9.95729 44.2833 9.90729 43.25 9.74062C42.1833 9.50729 40.9333 9.05729 39.5 8.39062C38.4667 7.89062 37.2 7.17396 35.7 6.24062L35 5.84063C34.4667 5.54062 34.0667 5.32396 33.8 5.19062C33.3 4.95729 32.85 4.82396 32.45 4.79062C31.5833 4.69062 30.9 4.94062 30.4 5.54062C30.0667 5.87396 29.7833 6.37396 29.55 7.04062L29.25 8.04062C29.2167 8.17396 29.1333 8.37396 29 8.64062C28.7667 9.04062 28.4 9.25729 27.9 9.29062H27.6C27.6 9.22396 27.6333 9.19062 27.7 9.19062C28.0667 9.05729 28.3333 8.77396 28.5 8.34063C28.6 8.07396 28.65 7.67396 28.65 7.14062V6.14062C28.65 5.50729 28.6917 5.01562 28.775 4.66562C28.8583 4.31562 29.05 3.99062 29.35 3.69062C29.9167 3.29062 30.5167 3.03229 31.15 2.91562C31.7833 2.79896 32.5833 2.84063 33.55 3.04062C34.6167 3.27396 35.75 3.65729 36.95 4.19062L38.85 5.09063C39.9833 5.62396 41.2333 5.99062 42.6 6.19062C43.6 6.29062 44.5 6.32396 45.3 6.29062C46.8333 6.22396 48.2167 5.89062 49.45 5.29062C49.7167 5.15729 49.9 5.05729 50 4.99062V5.09063ZM26.9 26.7906C26.9667 26.7573 27.0833 26.7406 27.25 26.7406L27.55 26.6906C28.15 26.524 28.6833 26.324 29.15 26.0906C29.2167 26.0573 29.2583 26.049 29.275 26.0656C29.2917 26.0823 29.3167 26.124 29.35 26.1906C29.5167 26.824 29.5833 27.3906 29.55 27.8906C29.5167 28.7573 29.1833 29.524 28.55 30.1906C28.05 30.724 27.3667 31.1573 26.5 31.4906C26.3333 31.5573 26.1167 31.624 25.85 31.6906L25.8 31.7406C25.7667 31.774 25.75 31.8073 25.75 31.8406C25.75 32.1406 25.7167 32.6073 25.65 33.2406V33.3906H25.7C26.0667 33.224 26.2917 32.9823 26.375 32.6656C26.4583 32.349 26.3667 32.1073 26.1 31.9406C26.0667 31.9406 26.05 31.924 26.05 31.8906C26.05 31.8573 26.0833 31.8406 26.15 31.8406C26.4833 31.7406 26.85 31.6073 27.25 31.4406L27.8 31.0906C27.8667 31.0573 27.9 31.0406 27.9 31.0406L27.95 31.1906C28.3167 31.924 28.3 32.6073 27.9 33.2406C27.7 33.7073 27.3167 34.1073 26.75 34.4406C26.45 34.6406 26.1167 34.7906 25.75 34.8906L25.6 34.9406C25.6 34.974 25.6 35.024 25.6 35.0906C25.6 35.624 25.5833 36.0406 25.55 36.3406L25.6 36.4406C25.7667 36.374 25.8917 36.2406 25.975 36.0406C26.0583 35.8406 26.0583 35.6656 25.975 35.5156C25.8917 35.3656 25.8167 35.2656 25.75 35.2156C25.6833 35.1656 25.6583 35.124 25.675 35.0906C25.6917 35.0573 25.7333 35.0406 25.8 35.0406C26.0333 34.974 26.35 34.8406 26.75 34.6406C26.8167 34.574 26.8583 34.5406 26.875 34.5406C26.8917 34.5406 26.9167 34.574 26.95 34.6406C27.4833 35.174 27.6167 35.7906 27.35 36.4906C27.1167 37.124 26.6667 37.624 26 37.9906C25.9 38.0573 25.75 38.124 25.55 38.1906C25.5167 38.1906 25.5 38.224 25.5 38.2906L25.45 39.7906C25.45 39.824 25.4667 39.8573 25.5 39.8906C25.7333 39.6906 25.85 39.4323 25.85 39.1156C25.85 38.799 25.7333 38.5406 25.5 38.3406C26 38.174 26.3667 37.974 26.6 37.7406C26.7667 38.0073 26.8667 38.274 26.9 38.5406C26.9 39.0406 26.7833 39.474 26.55 39.8406C26.3167 40.2073 25.9667 40.574 25.5 40.9406C25.4333 41.0073 25.4 41.074 25.4 41.1406V41.8906C25.5333 41.8573 25.6083 41.7656 25.625 41.6156C25.6417 41.4656 25.6167 41.324 25.55 41.1906C25.5167 41.124 25.5333 41.074 25.6 41.0406C25.6667 41.0073 25.7667 40.9073 25.9 40.7406L26 40.6406H26.1C26.2667 40.8406 26.3667 41.0573 26.4 41.2906C26.4 41.6573 26.3 41.9906 26.1 42.2906C26 42.4906 25.8833 42.6573 25.75 42.7906C25.45 43.1573 25.2667 43.6073 25.2 44.1406L25.15 44.6406C25.0833 45.2073 25.05 45.624 25.05 45.8906C25.05 46.024 25.0333 46.1073 25 46.1406L24.95 45.7906C24.95 45.324 24.8833 44.624 24.75 43.6906L24.65 42.1906C24.6167 41.9906 24.6 41.674 24.6 41.2406V41.1406C24.4667 41.1406 24.3917 41.2073 24.375 41.3406C24.3583 41.474 24.3833 41.599 24.45 41.7156C24.5167 41.8323 24.55 41.924 24.55 41.9906L24.65 43.4906C24.65 43.4906 24.6417 43.4906 24.625 43.4906C24.6083 43.4906 24.6 43.474 24.6 43.4406L24.05 42.5906C23.8167 42.224 23.675 41.8656 23.625 41.5156C23.575 41.1656 23.6333 40.8656 23.8 40.6156C23.9667 40.3656 24.1833 40.224 24.45 40.1906C24.5167 40.1573 24.55 40.1073 24.55 40.0406V38.4906C24.55 38.424 24.5333 38.3906 24.5 38.3906C24.4667 38.3906 24.4333 38.4073 24.4 38.4406C24.1667 38.7073 24.1 39.0406 24.2 39.4406C24.3333 39.7073 24.4333 39.8906 24.5 39.9906C24.4333 40.0573 24.35 40.0906 24.25 40.0906L23.95 40.2406C23.9167 40.274 23.8667 40.274 23.8 40.2406C23.4667 39.9073 23.2333 39.5406 23.1 39.1406C22.9667 38.5073 23.1333 37.924 23.6 37.3906C23.8 37.124 24.05 36.924 24.35 36.7906C24.4167 36.7573 24.45 36.6906 24.45 36.5906C24.45 36.0573 24.4333 35.6406 24.4 35.3406V35.2906C24.1667 35.4573 24.0167 35.6406 23.95 35.8406C23.9167 35.9406 23.925 36.0573 23.975 36.1906C24.025 36.324 24.1 36.424 24.2 36.4906C24.3 36.5573 24.3667 36.5906 24.4 36.5906L24.35 36.6406C24.3167 36.6406 24.3 36.6573 24.3 36.6906C24.1333 36.7906 23.9167 36.9406 23.65 37.1406C23.6167 37.174 23.5833 37.2073 23.55 37.2406L23.35 37.1906C22.95 36.9573 22.7 36.5906 22.6 36.0906C22.5 35.424 22.6833 34.8406 23.15 34.3406C23.3833 34.1073 23.7333 33.874 24.2 33.6406H24.3C24.3667 33.574 24.4 33.524 24.4 33.4906L24.3 31.9906C24.3 31.8906 24.2583 31.849 24.175 31.8656C24.0917 31.8823 23.975 31.9406 23.825 32.0406C23.675 32.1406 23.6 32.2906 23.6 32.4906C23.6667 32.7906 23.8 33.024 24 33.1906L24.25 33.3906C24.25 33.424 24.2333 33.4406 24.2 33.4406L24.15 33.4906C23.7167 33.6573 23.35 33.8906 23.05 34.1906C22.95 34.224 22.8833 34.224 22.85 34.1906C22.4167 33.8573 22.1333 33.474 22 33.0406C21.6667 32.2073 21.8167 31.3906 22.45 30.5906C22.75 30.1906 23.2833 29.824 24.05 29.4906C24.15 29.4573 24.2083 29.4323 24.225 29.4156C24.2417 29.399 24.25 29.3406 24.25 29.2406L24.15 26.7906C24.15 26.724 24.1417 26.6823 24.125 26.6656C24.1083 26.649 24.0667 26.6406 24 26.6406C23.7 26.6406 23.4833 26.674 23.35 26.7406C23.05 26.8073 22.8333 26.9573 22.7 27.1906C22.5667 27.424 22.5333 27.6906 22.6 27.9906C22.7 28.6573 23.0667 29.0906 23.7 29.2906L23.8 29.3406C23.8 29.374 23.7833 29.3906 23.75 29.3906L23.7 29.4406C23.1333 29.7073 22.6833 30.0406 22.35 30.4406L22.3 30.4906C22.2 30.5573 22.1167 30.5573 22.05 30.4906C21.3833 30.124 20.8833 29.6073 20.55 28.9406C20.2833 28.374 20.1667 27.8406 20.2 27.3406C20.2667 27.0073 20.35 26.7573 20.45 26.5906C20.95 25.6906 21.65 25.0406 22.55 24.6406C23.0833 24.4073 23.55 24.2906 23.95 24.2906C24.05 24.2906 24.0833 24.224 24.05 24.0906L24 21.8906C23.9667 21.4906 23.95 20.874 23.95 20.0406C23.9167 19.9073 23.8917 19.8323 23.875 19.8156C23.8583 19.799 23.7833 19.7906 23.65 19.7906C23.0167 19.7906 22.4833 19.8573 22.05 19.9906C21.7833 20.0906 21.5167 20.2406 21.25 20.4406C20.8833 20.8073 20.7333 21.2406 20.8 21.7406C20.8333 22.374 21.1 22.874 21.6 23.2406C22 23.6073 22.5167 23.874 23.15 24.0406L23.4 24.0906L23.45 24.1406L23.2 24.1906C22.3 24.4573 21.5167 24.9406 20.85 25.6406C20.7833 25.7073 20.7333 25.7406 20.7 25.7406C20.6667 25.7406 20.6 25.724 20.5 25.6906C19.1333 24.8906 18.25 23.8406 17.85 22.5406C17.5833 21.7406 17.6 20.974 17.9 20.2406C18.1333 19.6073 18.6 19.0406 19.3 18.5406C19.9 18.2073 20.5333 17.9573 21.2 17.7906C21.8 17.624 22.4 17.574 23 17.6406L23.85 17.5906L23.75 14.0906C23.75 13.9573 23.7 13.874 23.6 13.8406C23.2 13.5406 22.7333 13.3073 22.2 13.1406C21.3667 12.874 20.5667 12.7906 19.8 12.8906H19.4V12.8406C19.6333 12.4406 19.8333 11.974 20 11.4406L20.4 10.4406C20.5 10.2406 20.6333 10.0573 20.8 9.89062C21.0667 9.62396 21.3667 9.47396 21.7 9.44062C22.2 9.40729 22.7333 9.49062 23.3 9.69062L23.75 9.89062C23.75 9.79062 23.725 9.63229 23.675 9.41562C23.625 9.19896 23.5167 8.99062 23.35 8.79062L23.1 8.34063C22.8667 7.87396 22.8167 7.42396 22.95 6.99062C22.95 6.92396 22.975 6.83229 23.025 6.71563C23.075 6.59896 23.0917 6.52396 23.075 6.49062C23.0583 6.45729 23.0167 6.40729 22.95 6.34063C22.55 6.00729 22.2667 5.64062 22.1 5.24062C21.8333 4.64062 21.7583 4.01562 21.875 3.36562C21.9917 2.71563 22.2833 2.15729 22.75 1.69062C23.2167 1.22396 23.7833 0.923958 24.45 0.790623C25.3167 0.623959 26.1083 0.790623 26.825 1.29062C27.5417 1.79062 27.9667 2.47396 28.1 3.34063C28.3667 4.54062 28 5.55729 27 6.39062L26.95 6.44062C26.9167 6.47396 26.9 6.50729 26.9 6.54062C26.9667 6.64062 27.0333 6.79062 27.1 6.99062C27.2 7.45729 27.15 7.90729 26.95 8.34063C26.85 8.44062 26.725 8.62396 26.575 8.89062C26.425 9.15729 26.3167 9.45729 26.25 9.79062V9.89062L26.45 9.84063C26.95 9.60729 27.4083 9.48229 27.825 9.46563C28.2417 9.44896 28.5333 9.47396 28.7 9.54062C28.9667 9.67396 29.15 9.80729 29.25 9.94062C29.4167 10.1073 29.55 10.3073 29.65 10.5406L30.1 11.7406C30.2667 12.174 30.4333 12.5406 30.6 12.8406V12.8906H30.15C28.8833 12.7906 27.75 13.024 26.75 13.5906L26.4 13.8406C26.3 13.9406 26.25 14.024 26.25 14.0906L26.15 17.4906C26.15 17.5573 26.1833 17.5906 26.25 17.5906L27.25 17.6406C28.0833 17.6406 28.7167 17.624 29.15 17.5906C29.8833 17.524 30.5167 17.4073 31.05 17.2406L31.5 17.0406L31.7 16.8906C32.0667 16.624 32.2167 16.324 32.15 15.9906C32.05 15.524 31.7667 15.2406 31.3 15.1406C31.1 15.1073 30.7833 15.124 30.35 15.1906L28.75 15.3906C28.15 15.4573 27.65 15.4073 27.25 15.2406C27.1833 15.2406 27.15 15.224 27.15 15.1906C27.15 15.1573 27.1667 15.124 27.2 15.0906L27.25 15.0406C27.3167 15.0073 27.4167 14.9906 27.55 14.9906H28.5C28.6 14.9906 28.65 14.974 28.65 14.9406C28.65 14.9073 28.6167 14.874 28.55 14.8406L28.5 14.7906L28 14.7406C27.8 14.7406 27.6333 14.724 27.5 14.6906C27.4667 14.6906 27.3833 14.6573 27.25 14.5906L27.4 14.4406C27.8 14.2073 28.15 14.074 28.45 14.0406C29.15 13.874 29.8 13.8406 30.4 13.9406C31.2 14.0073 31.8333 14.1573 32.3 14.3906C32.5333 14.4573 32.85 14.624 33.25 14.8906C33.6833 15.224 33.95 15.6323 34.05 16.1156C34.15 16.599 34.1 17.0406 33.9 17.4406C33.7 17.8406 33.4167 18.2073 33.05 18.5406C32.7833 18.774 32.4167 19.0073 31.95 19.2406C31.7833 19.3073 31.5333 19.374 31.2 19.4406C29.7 19.7406 28.2667 19.874 26.9 19.8406C26.6 19.8406 26.4 19.8323 26.3 19.8156C26.2 19.799 26.1417 19.799 26.125 19.8156C26.1083 19.8323 26.1 19.874 26.1 19.9406C26.0667 20.3406 26.05 20.974 26.05 21.8406L25.95 24.0906C25.95 24.1573 25.9583 24.199 25.975 24.2156C25.9917 24.2323 26.0333 24.2406 26.1 24.2406C26.8667 24.074 27.5 23.8406 28 23.5406C28.3333 23.374 28.6 23.1406 28.8 22.8406C29.1333 22.4406 29.275 21.9656 29.225 21.4156C29.175 20.8656 28.9 20.4573 28.4 20.1906L28.2 20.0906C28.2 20.0906 28.2083 20.0823 28.225 20.0656C28.2417 20.049 28.2667 20.0406 28.3 20.0406C29.3 20.0406 30.4167 19.874 31.65 19.5406C31.75 19.474 31.8 19.4906 31.8 19.5906C32.0667 20.024 32.2333 20.4906 32.3 20.9906C32.4 21.824 32.2 22.6573 31.7 23.4906C31.1 24.5573 30.3167 25.324 29.35 25.7906C28.6167 26.124 27.8333 26.374 27 26.5406H26.9C26.5 26.6073 26.2 26.6406 26 26.6406C25.9333 26.6406 25.8917 26.649 25.875 26.6656C25.8583 26.6823 25.85 26.724 25.85 26.7906L25.8 29.3406C25.8 29.374 25.8167 29.3906 25.85 29.3906C26.0167 29.3906 26.15 29.374 26.25 29.3406C26.95 29.074 27.35 28.5906 27.45 27.8906C27.5167 27.4906 27.3667 27.1573 27 26.8906L26.95 26.8406C26.9167 26.8406 26.9 26.824 26.9 26.7906ZM0 5.04062C0.0666667 5.04062 0.116667 5.05729 0.15 5.09063C1.28333 5.69062 2.43333 6.05729 3.6 6.19062C4.43333 6.32396 5.45 6.35729 6.65 6.29062C8.38333 6.09063 10 5.62396 11.5 4.89062L12.05 4.64062C13.1833 4.14062 14.05 3.77396 14.65 3.54062C15.45 3.27396 16.1667 3.09063 16.8 2.99062C17.5 2.85729 18.25 2.84063 19.05 2.94062C19.65 3.10729 20.15 3.34063 20.55 3.64062C20.95 3.94062 21.2 4.37396 21.3 4.94062C21.3333 5.20729 21.35 5.60729 21.35 6.14062V7.49062L21.4 7.74062C21.4333 8.00729 21.4667 8.19062 21.5 8.29062C21.6667 8.75729 21.95 9.05729 22.35 9.19062H22.4C22.4 9.19062 22.4 9.20729 22.4 9.24062C22.2 9.30729 21.975 9.29896 21.725 9.21563C21.475 9.13229 21.2667 8.99062 21.1 8.79062L20.8 8.19062L20.5 7.19062C20.3333 6.59063 20.1 6.12396 19.8 5.79062C19.4667 5.29062 19.0667 4.98229 18.6 4.86562C18.1333 4.74896 17.6583 4.74896 17.175 4.86562C16.6917 4.98229 16.2 5.17396 15.7 5.44062C15.4 5.57396 14.9833 5.80729 14.45 6.14062L13.95 6.44062C12.55 7.30729 11.3167 7.99062 10.25 8.49062C9.11667 9.02396 8.05 9.40729 7.05 9.64062C6.35 9.84063 5.63333 9.94062 4.9 9.94062C3.83333 9.87396 2.98333 9.63229 2.35 9.21563C1.71667 8.79896 1.21667 8.22396 0.85 7.49062C0.45 6.82396 0.166667 6.00729 0 5.04062ZM30.45 6.09063C30.9167 5.42396 31.5167 5.10729 32.25 5.14062C32.5833 5.17396 33.0083 5.29896 33.525 5.51562C34.0417 5.73229 34.5833 6.00729 35.15 6.34063C36.25 7.04062 37.3667 7.69062 38.5 8.29062C39.6333 8.89062 40.8167 9.39062 42.05 9.79062L42.2 9.84063C43.0333 10.074 43.6667 10.2073 44.1 10.2406C44.9667 10.3406 45.7333 10.3073 46.4 10.1406H46.5C46.5 10.2406 46.45 10.374 46.35 10.5406C46.1167 11.2073 45.65 11.7573 44.95 12.1906C44.3167 12.5573 43.6 12.824 42.8 12.9906C42.4 13.0906 42 13.1406 41.6 13.1406C41.0667 13.1073 40.4833 12.9656 39.85 12.7156C39.2167 12.4656 38.5333 12.0573 37.8 11.4906C37.4333 11.1906 36.9 10.6906 36.2 9.99062L35.4 9.19062C34.8333 8.65729 34.4167 8.27396 34.15 8.04062C33.5167 7.40729 32.9 6.94062 32.3 6.64062C31.8 6.37396 31.2 6.20729 30.5 6.14062C30.4667 6.14062 30.45 6.12396 30.45 6.09063ZM3.5 10.1406C3.63333 10.1406 3.83333 10.174 4.1 10.2406C4.53333 10.3406 5.06667 10.3573 5.7 10.2906C6.9 10.1573 8.25 9.77396 9.75 9.14062C10.9833 8.57396 12.2833 7.89062 13.65 7.09063C14.05 6.85729 14.6167 6.52396 15.35 6.09063C16.0833 5.65729 16.6667 5.39062 17.1 5.29062C17.4 5.19062 17.7333 5.14062 18.1 5.14062C18.5667 5.17396 18.95 5.35729 19.25 5.69062C19.4167 5.85729 19.5333 6.00729 19.6 6.14062H19.3C18.6 6.24062 17.975 6.45729 17.425 6.79062C16.875 7.12396 16.2833 7.59063 15.65 8.19062C15.25 8.55729 14.65 9.14062 13.85 9.94062C13.1167 10.674 12.5333 11.2073 12.1 11.5406C11.4667 12.0406 10.9 12.3906 10.4 12.5906C9.56667 13.024 8.73333 13.1906 7.9 13.0906C6.73333 12.9906 5.73333 12.6406 4.9 12.0406C4.26667 11.6406 3.81667 11.074 3.55 10.3406L3.5 10.1406ZM29.65 7.99062C29.8167 7.49062 29.9667 7.04062 30.1 6.64062C30.1667 6.54062 30.25 6.49062 30.35 6.49062C30.9167 6.49062 31.4917 6.64062 32.075 6.94062C32.6583 7.24062 33.2 7.62396 33.7 8.09063C34.3667 8.69062 34.85 9.15729 35.15 9.49062C36.15 10.4906 36.9167 11.2073 37.45 11.6406C38.1833 12.274 38.9667 12.7573 39.8 13.0906C40.5 13.3573 41.2 13.4906 41.9 13.4906L42.5 13.4406V13.4906C42.1333 13.9906 41.6917 14.4073 41.175 14.7406C40.6583 15.074 40.2083 15.2323 39.825 15.2156C39.4417 15.199 39.0833 15.1073 38.75 14.9406C38.3167 14.7406 37.8 14.3906 37.2 13.8906C36.7333 13.4906 36.0667 12.824 35.2 11.8906C34.6333 11.224 33.9333 10.5073 33.1 9.74062C32.4333 9.20729 31.9 8.82396 31.5 8.59063C30.9 8.25729 30.4 8.07396 30 8.04062C29.9667 8.00729 29.9167 7.99062 29.85 7.99062H29.65ZM7.5 13.4406C7.6 13.4406 7.68333 13.4406 7.75 13.4406C8.61667 13.5406 9.48333 13.4073 10.35 13.0406C10.85 12.8406 11.5667 12.4073 12.5 11.7406C13 11.3073 13.7167 10.624 14.65 9.69062L15.05 9.29062C15.7167 8.62396 16.2333 8.14062 16.6 7.84063C17.0667 7.47396 17.6 7.12396 18.2 6.79062C18.7 6.59063 19.2 6.49062 19.7 6.49062C19.8 6.49062 19.8667 6.54062 19.9 6.64062C20.1 7.17396 20.2333 7.59063 20.3 7.89062C20.3333 7.92396 20.35 7.95729 20.35 7.99062H20.2C19.8667 8.02396 19.5167 8.12396 19.15 8.29062C18.5167 8.52396 17.95 8.87396 17.45 9.34063C16.95 9.70729 16.2667 10.3573 15.4 11.2906L13.4 13.3406L13.15 13.5906C12.5833 14.0906 12.1333 14.4406 11.8 14.6406C11.3667 14.9073 10.9833 15.074 10.65 15.1406C10.0167 15.2406 9.46667 15.1573 9 14.8906C8.7 14.724 8.31667 14.4073 7.85 13.9406L7.75 13.7906C7.61667 13.6573 7.53333 13.5406 7.5 13.4406ZM20.95 9.19062C20.7167 9.19062 20.55 9.20729 20.45 9.24062C19.9167 9.37396 19.4333 9.65729 19 10.0906C18.7667 10.2906 18.4833 10.624 18.15 11.0906L18 11.2906L16.95 12.9906C16.7167 13.424 16.4333 13.8573 16.1 14.2906C16 14.3906 15.85 14.5406 15.65 14.7406L15.45 14.9406C14.7833 15.4406 14.1 15.574 13.4 15.3406C12.9667 15.2073 12.6 15.024 12.3 14.7906C12.2667 14.7573 12.2667 14.7406 12.3 14.7406C13 14.2406 13.6667 13.6406 14.3 12.9406L15.15 12.0406C15.7833 11.3406 16.2833 10.8406 16.65 10.5406C17.0833 10.0406 17.65 9.55729 18.35 9.09063C18.8833 8.75729 19.4167 8.52396 19.95 8.39062L20.4 8.34063C20.4667 8.34063 20.5 8.37396 20.5 8.44062C20.6 8.67396 20.75 8.92396 20.95 9.19062ZM37.75 14.7406C37.75 14.7406 37.7333 14.7573 37.7 14.7906C37.2333 15.124 36.7833 15.3406 36.35 15.4406C35.75 15.5406 35.2333 15.424 34.8 15.0906C34.4333 14.8573 34.1667 14.624 34 14.3906C33.8333 14.1573 33.5833 13.7906 33.25 13.2906L33.05 12.9906C32.5833 12.1906 32.2167 11.6073 31.95 11.2406C31.6167 10.7406 31.2667 10.3073 30.9 9.94062C30.4 9.57396 29.9 9.34063 29.4 9.24062L29.05 9.14062C29.15 9.04062 29.2667 8.89062 29.4 8.69062C29.4 8.65729 29.4333 8.57396 29.5 8.44062C29.5 8.37396 29.55 8.34063 29.65 8.34063C30.05 8.40729 30.3333 8.47396 30.5 8.54062C30.9667 8.70729 31.5167 9.00729 32.15 9.44062C32.5833 9.77396 33.1667 10.3073 33.9 11.0406L35.8 13.0406C36.6 13.8406 37.2333 14.4073 37.7 14.7406H37.75ZM22.75 14.5906C22.65 14.6573 22.5 14.6906 22.3 14.6906L21.65 14.7906C21.55 14.7906 21.4667 14.8073 21.4 14.8406L21.35 14.8906C21.3833 14.924 21.4 14.9573 21.4 14.9906H22.25C22.3833 14.9573 22.5167 14.9573 22.65 14.9906L22.85 15.0906C22.9167 15.1573 22.9 15.2073 22.8 15.2406L22.25 15.3906C21.75 15.4573 21.3 15.4406 20.9 15.3406L19.4 15.1406H19.2C18.9 15.1406 18.6833 15.1573 18.55 15.1906C18.3167 15.2573 18.1333 15.4073 18 15.6406C17.8667 15.874 17.825 16.0906 17.875 16.2906C17.925 16.4906 18.025 16.6573 18.175 16.7906C18.325 16.924 18.5667 17.0573 18.9 17.1906C19.3667 17.3573 19.8333 17.4573 20.3 17.4906L21.1 17.5906C20.9667 17.6573 20.85 17.6906 20.75 17.6906C20.1833 17.824 19.6333 18.0573 19.1 18.3906C18.7 18.6906 18.4167 18.9573 18.25 19.1906C18.2167 19.224 18.1667 19.2406 18.1 19.2406C17.3667 18.9073 16.8333 18.5073 16.5 18.0406C16.1667 17.674 15.9833 17.274 15.95 16.8406C15.85 16.1406 16.0333 15.5573 16.5 15.0906C16.7333 14.8573 17.15 14.6073 17.75 14.3406C18.25 14.1406 18.8667 14.0073 19.6 13.9406C20.2 13.8406 20.85 13.874 21.55 14.0406C21.9167 14.074 22.2833 14.224 22.65 14.4906L22.75 14.5406C22.75 14.5406 22.75 14.5573 22.75 14.5906ZM20.5 9.64062C20.2 9.97396 19.9167 10.574 19.65 11.4406L19.2 12.4906C19.1 12.6906 18.9667 12.874 18.8 13.0406C18.5 13.3406 18.15 13.4573 17.75 13.3906C17.6167 13.3906 17.45 13.3573 17.25 13.2906C17.2167 13.2573 17.2167 13.2406 17.25 13.2406L17.6 12.6906C17.9667 12.0906 18.25 11.6406 18.45 11.3406C18.75 10.8406 19.0583 10.4573 19.375 10.1906C19.6917 9.92396 20.05 9.74062 20.45 9.64062H20.5ZM29.5 9.64062C29.8 9.67396 30.05 9.77396 30.25 9.94062C30.6167 10.174 30.9833 10.5406 31.35 11.0406C31.4833 11.2406 31.6833 11.5406 31.95 11.9406L32.35 12.4906C32.55 12.824 32.7 13.0906 32.8 13.2906L32.7 13.3406C32.3667 13.4073 32.1167 13.424 31.95 13.3906C31.6167 13.3906 31.3333 13.224 31.1 12.8906C30.9667 12.7573 30.825 12.524 30.675 12.1906C30.525 11.8573 30.3667 11.4406 30.2 10.9406C30.0667 10.574 29.9167 10.2573 29.75 9.99062C29.6833 9.85729 29.6 9.74062 29.5 9.64062Z" fill="#74EED8"/>
</svg>
