<svg width="38" height="38" viewBox="0 0 38 38" fill="none" xmlns="http://www.w3.org/2000/svg">
<path d="M37.1499 6.97363H13.23V13.5498H6.94287L4.34131 22.2217H0.149902V33.0615H4.48584V33.1338C4.48584 35.5186 6.43701 37.4697 8.82178 37.4697C11.2788 37.4697 13.23 35.5186 13.23 33.1338V33.0615H24.0698V33.1338C24.0698 35.5186 26.021 37.4697 28.478 37.4697C30.8628 37.4697 32.814 35.5186 32.814 33.1338V33.0615H37.1499V6.97363ZM8.60498 15.7178H13.23V22.2217H6.65381L8.60498 15.7178ZM8.82178 35.3018C7.66553 35.3018 6.65381 34.29 6.65381 33.1338C6.65381 31.9053 7.66553 30.9658 8.82178 30.9658C10.0503 30.9658 11.062 31.9053 11.062 33.1338C11.062 34.29 10.0503 35.3018 8.82178 35.3018ZM28.478 35.3018C27.2495 35.3018 26.2378 34.29 26.2378 33.1338C26.2378 31.9053 27.2495 30.9658 28.478 30.9658C29.6343 30.9658 30.646 31.9053 30.646 33.1338C30.646 34.29 29.6343 35.3018 28.478 35.3018ZM34.9819 30.8936H32.1636C31.3687 29.5928 29.9956 28.7979 28.478 28.7979C26.8882 28.7979 25.5151 29.5928 24.7202 30.8936H12.5796C11.7847 29.5928 10.4116 28.7979 8.82178 28.7979C7.3042 28.7979 5.93115 29.5928 5.13623 30.8936H2.31787V24.3896H15.3979V9.1416H34.9819V30.8936Z" fill="#02FCFA"/>
</svg>
