<svg width="81" height="73" viewBox="0 0 81 73" fill="none" xmlns="http://www.w3.org/2000/svg">
<path d="M80.7402 8.2H66.1102V5.67C66.1102 4.20333 65.6152 2.975 64.6252 1.985C63.6352 0.995003 62.4068 0.5 60.9402 0.5H49.0602C47.5935 0.5 46.3468 1.01334 45.3202 2.04C44.2935 3.06667 43.7802 4.27666 43.7802 5.67V8.2H29.1502C26.9502 8.2 24.9335 8.73167 23.1002 9.795C21.2668 10.8583 19.8185 12.3067 18.7552 14.14C17.6918 15.9733 17.1602 17.99 17.1602 20.19V98.51C17.1602 100.71 17.6918 102.727 18.7552 104.56C19.8185 106.393 21.2668 107.842 23.1002 108.905C24.9335 109.968 26.9502 110.5 29.1502 110.5H80.7402C82.9402 110.5 84.9568 109.968 86.7902 108.905C88.6235 107.842 90.0902 106.393 91.1902 104.56C92.2902 102.727 92.8402 100.71 92.8402 98.51V20.19C92.8402 17.99 92.2902 15.9733 91.1902 14.14C90.0902 12.3067 88.6235 10.8583 86.7902 9.795C84.9568 8.73167 82.9402 8.2 80.7402 8.2ZM55.0002 2.81C55.7335 2.81 56.3568 3.06667 56.8702 3.58C57.3835 4.09333 57.6402 4.71667 57.6402 5.45C57.6402 6.18333 57.3835 6.80666 56.8702 7.32C56.3568 7.83334 55.7335 8.09 55.0002 8.09C54.2668 8.09 53.6435 7.83334 53.1302 7.32C52.6168 6.80666 52.3602 6.18333 52.3602 5.45C52.3602 4.71667 52.6168 4.09333 53.1302 3.58C53.6435 3.06667 54.2668 2.81 55.0002 2.81ZM40.9202 15.57H69.0802V26.57H40.9202V15.57ZM80.7402 103.57H29.1502C27.7568 103.57 26.5652 103.075 25.5752 102.085C24.5852 101.095 24.0902 99.9033 24.0902 98.51V20.19C24.0902 18.7967 24.5852 17.5867 25.5752 16.56C26.5652 15.5333 27.7568 15.02 29.1502 15.02H34.1002V27.34C34.1002 28.9533 34.7052 30.365 35.9152 31.575C37.1252 32.785 38.5368 33.39 40.1502 33.39H69.8502C71.5368 33.39 72.9668 32.785 74.1402 31.575C75.3135 30.365 75.9002 28.9533 75.9002 27.34V15.02H80.7402C82.1335 15.02 83.3435 15.5333 84.3702 16.56C85.3968 17.5867 85.9102 18.7967 85.9102 20.19V98.51C85.9102 99.9033 85.3968 101.095 84.3702 102.085C83.3435 103.075 82.1335 103.57 80.7402 103.57ZM43.1202 44.94L41.9102 46.37C41.6902 45.7833 41.3418 45.3433 40.8652 45.05C40.3885 44.7567 39.8568 44.61 39.2702 44.61H31.3502C30.5435 44.61 29.8652 44.885 29.3152 45.435C28.7652 45.985 28.4902 46.6267 28.4902 47.36V56.16C28.4902 56.8933 28.7835 57.5533 29.3702 58.14C29.9568 58.7267 30.6168 59.02 31.3502 59.02H39.2702C40.0768 59.02 40.7552 58.7267 41.3052 58.14C41.8552 57.5533 42.1302 56.8933 42.1302 56.16V51.43L45.7602 47.14C46.0535 46.7733 46.1818 46.3517 46.1452 45.875C46.1085 45.3983 45.9068 45.0133 45.5402 44.72C45.1735 44.4267 44.7518 44.2983 44.2752 44.335C43.7985 44.3717 43.4135 44.5733 43.1202 44.94ZM40.2602 56.16C40.2602 56.4533 40.1685 56.6917 39.9852 56.875C39.8018 57.0583 39.6002 57.15 39.3802 57.15H31.3502C31.0568 57.15 30.8185 57.0583 30.6352 56.875C30.4518 56.6917 30.3602 56.4533 30.3602 56.16V47.36C30.3602 47.0667 30.4518 46.8467 30.6352 46.7C30.8185 46.5533 31.0568 46.48 31.3502 46.48H39.3802C39.6002 46.48 39.8018 46.5533 39.9852 46.7C40.1685 46.8467 40.2602 47.0667 40.2602 47.36V48.35L37.9502 51.1C37.6568 51.4667 37.2718 51.6683 36.7952 51.705C36.3185 51.7417 35.8968 51.5767 35.5302 51.21L34.1002 49.89C33.8068 49.5967 33.4218 49.45 32.9452 49.45C32.4685 49.45 32.0652 49.615 31.7352 49.945C31.4052 50.275 31.2402 50.6783 31.2402 51.155C31.2402 51.6317 31.4235 52.0533 31.7902 52.42L35.8602 56.16C36.1535 56.4533 36.5202 56.6 36.9602 56.6H37.0702C37.5102 56.6 37.9135 56.4167 38.2802 56.05L40.2602 53.63V56.16ZM43.1202 63.64L41.8002 65.18C41.5802 64.74 41.2502 64.3917 40.8102 64.135C40.3702 63.8783 39.8935 63.75 39.3802 63.75H31.3502C30.6168 63.75 29.9752 64.0067 29.4252 64.52C28.8752 65.0333 28.6002 65.6933 28.6002 66.5V75.3C28.6002 76.0333 28.8752 76.675 29.4252 77.225C29.9752 77.775 30.6168 78.05 31.3502 78.05H39.3802C40.1135 78.05 40.7552 77.775 41.3052 77.225C41.8552 76.675 42.1302 76.0333 42.1302 75.3V70.13L45.7602 65.84C46.0535 65.4733 46.1818 65.0517 46.1452 64.575C46.1085 64.0983 45.9068 63.7133 45.5402 63.42C45.1735 63.1267 44.7702 62.9983 44.3302 63.035C43.8902 63.0717 43.4868 63.2733 43.1202 63.64ZM40.2602 75.3C40.2602 75.5933 40.1685 75.8133 39.9852 75.96C39.8018 76.1067 39.6002 76.18 39.3802 76.18H31.3502C31.0568 76.18 30.8185 76.1067 30.6352 75.96C30.4518 75.8133 30.3602 75.5933 30.3602 75.3V66.5C30.3602 66.2067 30.4518 65.9683 30.6352 65.785C30.8185 65.6017 31.0568 65.51 31.3502 65.51H39.3802C39.6002 65.51 39.8018 65.6017 39.9852 65.785C40.1685 65.9683 40.2602 66.2067 40.2602 66.5V67.05L37.9502 69.8C37.6568 70.1667 37.2718 70.3683 36.7952 70.405C36.3185 70.4417 35.8968 70.2767 35.5302 69.91L34.1002 68.59C33.8068 68.2967 33.4218 68.15 32.9452 68.15C32.4685 68.15 32.0652 68.315 31.7352 68.645C31.4052 68.975 31.2402 69.3783 31.2402 69.855C31.2402 70.3317 31.4235 70.7533 31.7902 71.12L35.8602 74.86C36.1535 75.1533 36.5202 75.3 36.9602 75.3H37.0702C37.5102 75.3 37.9135 75.1167 38.2802 74.75L40.2602 72.44V75.3ZM43.1202 82.45L41.6902 84.1C41.2502 83.1467 40.4802 82.67 39.3802 82.67H31.3502C30.6168 82.67 29.9752 82.9267 29.4252 83.44C28.8752 83.9533 28.6002 84.6133 28.6002 85.42V94.22C28.6002 95.0267 28.8752 95.705 29.4252 96.255C29.9752 96.805 30.6168 97.08 31.3502 97.08H39.3802C40.1135 97.08 40.7552 96.7867 41.3052 96.2C41.8552 95.6133 42.1302 94.9533 42.1302 94.22V88.94L45.7602 84.65C46.0535 84.2833 46.1818 83.8617 46.1452 83.385C46.1085 82.9083 45.9068 82.5233 45.5402 82.23C45.1735 81.9367 44.7702 81.8083 44.3302 81.845C43.8902 81.8817 43.4868 82.0833 43.1202 82.45ZM40.2602 94.22C40.2602 94.5133 40.1685 94.7517 39.9852 94.935C39.8018 95.1183 39.6002 95.21 39.3802 95.21H31.3502C31.0568 95.21 30.8185 95.1183 30.6352 94.935C30.4518 94.7517 30.3602 94.5133 30.3602 94.22V85.42C30.3602 85.1267 30.4518 84.9067 30.6352 84.76C30.8185 84.6133 31.0568 84.54 31.3502 84.54H39.3802C39.6002 84.54 39.8018 84.6133 39.9852 84.76C40.1685 84.9067 40.2602 85.1267 40.2602 85.42V85.86L37.9502 88.61C37.5835 88.9767 37.1802 89.16 36.7402 89.16C36.3002 89.16 35.8968 89.0133 35.5302 88.72L34.1002 87.4C33.8068 87.1067 33.4218 86.96 32.9452 86.96C32.4685 86.96 32.0652 87.125 31.7352 87.455C31.4052 87.785 31.2402 88.1883 31.2402 88.665C31.2402 89.1417 31.4235 89.5633 31.7902 89.93L35.8602 93.67C36.1535 93.9633 36.5202 94.11 36.9602 94.11H37.0702C37.5835 94.11 37.9868 93.89 38.2802 93.45L40.2602 91.14V94.22ZM80.3002 50.55H52.4702C51.9568 50.55 51.5352 50.715 51.2052 51.045C50.8752 51.375 50.7102 51.7967 50.7102 52.31C50.7102 52.8233 50.8752 53.245 51.2052 53.575C51.5352 53.905 51.9568 54.07 52.4702 54.07H80.3002C80.7402 54.07 81.1252 53.905 81.4552 53.575C81.7852 53.245 81.9502 52.8233 81.9502 52.31C81.9502 51.7967 81.7852 51.375 81.4552 51.045C81.1252 50.715 80.7402 50.55 80.3002 50.55ZM80.3002 67.49H52.4702C51.9568 67.49 51.5352 67.655 51.2052 67.985C50.8752 68.315 50.7102 68.7183 50.7102 69.195C50.7102 69.6717 50.8752 70.075 51.2052 70.405C51.5352 70.735 51.9568 70.9 52.4702 70.9H80.3002C80.7402 70.9 81.1252 70.735 81.4552 70.405C81.7852 70.075 81.9502 69.6717 81.9502 69.195C81.9502 68.7183 81.7852 68.315 81.4552 67.985C81.1252 67.655 80.7402 67.49 80.3002 67.49ZM80.3002 84.32H52.4702C51.9568 84.32 51.5352 84.485 51.2052 84.815C50.8752 85.145 50.7102 85.53 50.7102 85.97C50.7102 86.41 50.8752 86.8133 51.2052 87.18C51.5352 87.5467 51.9568 87.73 52.4702 87.73H80.3002C80.7402 87.73 81.1252 87.565 81.4552 87.235C81.7852 86.905 81.9502 86.5017 81.9502 86.025C81.9502 85.5483 81.7852 85.145 81.4552 84.815C81.1252 84.485 80.7402 84.32 80.3002 84.32Z" fill="white"/>
</svg>
