<svg width="50" height="51" viewBox="0 0 50 51" fill="none" xmlns="http://www.w3.org/2000/svg">
<g clip-path="url(#clip0_2184_21591)">
<path d="M28.4208 17.887C28.4125 17.6182 28.4606 17.3506 28.5618 17.1015C28.663 16.8523 28.8151 16.627 29.0085 16.4401C29.2019 16.2532 29.4322 16.1087 29.6846 16.016C29.9371 15.9233 30.2061 15.8844 30.4745 15.9017H32.5171C33.17 15.9017 33.4995 16.2848 34.0245 16.9613C34.2903 17.4227 34.6679 17.81 35.1224 18.0875C35.577 18.365 36.094 18.5239 36.6259 18.5495C36.8014 18.5495 36.9698 18.4798 37.0939 18.3557C37.218 18.2316 37.2877 18.0633 37.2877 17.8877C37.2877 17.7122 37.218 17.5439 37.0939 17.4198C36.9698 17.2957 36.8014 17.226 36.6259 17.226C35.9737 17.226 35.6443 16.8436 35.1201 16.1672C35.0524 16.0804 34.9833 15.9907 34.9105 15.9002H38.684C38.8595 15.9002 39.0279 15.8305 39.152 15.7064C39.2761 15.5823 39.3458 15.414 39.3458 15.2385C39.3458 15.063 39.2761 14.8946 39.152 14.7705C39.0279 14.6464 38.8595 14.5767 38.684 14.5767H37.6546C37.7281 14.4877 37.7958 14.398 37.8627 14.312C38.3877 13.6355 38.7164 13.2532 39.3686 13.2532C39.4555 13.2532 39.5415 13.2361 39.6218 13.2028C39.7021 13.1696 39.7751 13.1208 39.8365 13.0594C39.898 12.9979 39.9467 12.925 39.98 12.8447C40.0132 12.7644 40.0303 12.6783 40.0303 12.5914C40.0303 12.5045 40.0132 12.4185 39.98 12.3382C39.9467 12.2579 39.898 12.1849 39.8365 12.1235C39.7751 12.062 39.7021 12.0133 39.6218 11.98C39.5415 11.9468 39.4555 11.9297 39.3686 11.9297C38.8366 11.9553 38.3196 12.1141 37.8651 12.3916C37.4105 12.6691 37.033 13.0564 36.7671 13.5179C36.2436 14.1929 35.9142 14.5745 35.2642 14.5767H30.4759C30.03 14.5538 29.5842 14.6228 29.1661 14.7794C28.748 14.9361 28.3666 15.1771 28.0456 15.4874C27.7246 15.7977 27.4708 16.1707 27.3001 16.5833C27.1293 16.9959 27.0453 17.4391 27.0531 17.8855C27.0531 19.2642 28.1789 21.0172 29.4796 23.048C30.909 25.276 32.5289 27.7995 32.5289 29.7973C32.5688 30.3369 32.4591 30.8771 32.2119 31.3584C31.9646 31.8397 31.5893 32.2435 31.1274 32.5252C30.873 29.8907 28.2208 27.8105 24.9914 27.8105C21.762 27.8105 19.109 29.8899 18.8553 32.5238C18.3945 32.2415 18.0203 31.8378 17.7738 31.3568C17.5274 30.8758 17.4182 30.3362 17.4583 29.7973C17.4583 27.7995 19.0759 25.2752 20.5076 23.048C21.8098 21.0172 22.934 19.2642 22.934 17.8855C22.9419 17.4391 22.8578 16.9959 22.6871 16.5833C22.5164 16.1707 22.2626 15.7977 21.9416 15.4874C21.6206 15.1771 21.2392 14.9361 20.8211 14.7794C20.403 14.6228 19.9571 14.5538 19.5112 14.5767H14.7186C14.0678 14.5767 13.7399 14.1929 13.2156 13.5179C12.9497 13.0569 12.5723 12.67 12.1181 12.3928C11.6638 12.1156 11.1472 11.9568 10.6156 11.9311C10.4401 11.9311 10.2718 12.0008 10.1477 12.1249C10.0236 12.2491 9.95388 12.4174 9.95388 12.5929C9.95388 12.7684 10.0236 12.9367 10.1477 13.0608C10.2718 13.1849 10.4401 13.2547 10.6156 13.2547C11.2686 13.2547 11.5973 13.637 12.1215 14.3135C12.1884 14.3995 12.2575 14.4892 12.3296 14.5782H11.3002C11.1247 14.5782 10.9564 14.6479 10.8323 14.772C10.7082 14.8961 10.6384 15.0644 10.6384 15.2399C10.6384 15.4155 10.7082 15.5838 10.8323 15.7079C10.9564 15.832 11.1247 15.9017 11.3002 15.9017H15.0715C14.998 15.9922 14.9289 16.0819 14.862 16.1686C14.337 16.8451 14.0083 17.2274 13.3561 17.2274C13.1806 17.2274 13.0122 17.2972 12.8881 17.4213C12.764 17.5454 12.6943 17.7137 12.6943 17.8892C12.6943 18.0647 12.764 18.233 12.8881 18.3572C13.0122 18.4813 13.1806 18.551 13.3561 18.551C13.888 18.5254 14.405 18.3665 14.8596 18.089C15.3142 17.8115 15.6917 17.4242 15.9575 16.9627C16.4825 16.2863 16.8112 15.9032 17.4642 15.9032H19.5127C19.7815 15.8851 20.0511 15.9235 20.3042 16.0159C20.5572 16.1082 20.7882 16.2526 20.9821 16.4396C21.176 16.6266 21.3286 16.8521 21.4302 17.1016C21.5317 17.3512 21.5798 17.6192 21.5715 17.8885C21.5715 18.8899 20.4421 20.6502 19.3495 22.3532C17.8237 24.7304 16.0951 27.4267 16.0951 29.8002C16.0406 30.7234 16.2907 31.6388 16.8069 32.4061C17.3231 33.1733 18.0768 33.7499 18.9524 34.0473C19.3723 36.2186 20.8862 39.1429 22.9414 40.412V44.3576C22.9495 44.5337 23.0252 44.6998 23.1527 44.8215C23.2802 44.9432 23.4497 45.0112 23.6259 45.0112C23.8022 45.0112 23.9717 44.9432 24.0992 44.8215C24.2266 44.6998 24.3023 44.5337 24.3105 44.3576V40.9752C24.7618 41.0714 25.2283 41.0714 25.6796 40.9752V44.3576C25.6878 44.5337 25.7635 44.6998 25.8909 44.8215C26.0184 44.9432 26.1879 45.0112 26.3642 45.0112C26.5404 45.0112 26.7099 44.9432 26.8374 44.8215C26.9649 44.6998 27.0406 44.5337 27.0487 44.3576V40.4113C29.1076 39.1429 30.6178 36.2201 31.0377 34.0473C31.9143 33.7505 32.6693 33.1742 33.1866 32.4068C33.704 31.6394 33.9552 30.7234 33.9017 29.7995C33.9017 27.4252 32.173 24.726 30.6473 22.3524C29.5546 20.6495 28.4252 18.8885 28.4252 17.8877L28.4208 17.887ZM24.9914 39.7252C22.4664 39.7252 20.1995 35.1179 20.1995 32.9422C20.1995 30.8436 22.3495 29.137 24.9914 29.137C27.6333 29.137 29.7833 30.8436 29.7833 32.9422C29.7833 35.1172 27.5156 39.7252 24.9914 39.7252ZM12.3252 25.1664C8.36123 25.1664 5.13696 20.7135 5.13696 15.2399C5.13696 9.76642 8.36123 5.31348 12.3252 5.31348C15.7583 5.31348 18.6487 8.53995 19.3553 13.1583C19.3678 13.2457 19.3627 13.3346 19.3403 13.42C19.3179 13.5053 19.2786 13.5853 19.2249 13.6553C19.1711 13.7252 19.1039 13.7837 19.0271 13.8273C18.9504 13.8709 18.8658 13.8987 18.7781 13.9091C18.6013 13.9368 18.4206 13.8937 18.2752 13.7893C18.1297 13.6849 18.0312 13.5274 18.0009 13.351C17.4046 9.46054 15.0186 6.63627 12.3245 6.63627C9.11564 6.63627 6.50535 10.4958 6.50535 15.2392C6.50535 19.9826 9.11564 23.8422 12.3245 23.8422C15.0186 23.8422 17.4046 21.0186 18.0009 17.1274C18.0321 16.9514 18.1308 16.7946 18.276 16.6903C18.4212 16.586 18.6014 16.5426 18.7781 16.5694C18.8658 16.5797 18.9504 16.6076 19.0271 16.6511C19.1039 16.6947 19.1711 16.7532 19.2249 16.8232C19.2786 16.8931 19.3179 16.9731 19.3403 17.0584C19.3627 17.1438 19.3678 17.2327 19.3553 17.3201C18.6487 21.9385 15.759 25.1649 12.3252 25.1649V25.1664ZM44.8428 15.2399C44.8428 20.7135 41.6186 25.1664 37.6546 25.1664C34.2215 25.1664 31.3311 21.9399 30.6237 17.3216C30.6112 17.2342 30.6164 17.1453 30.6388 17.0599C30.6612 16.9746 30.7004 16.8946 30.7542 16.8246C30.808 16.7547 30.8752 16.6962 30.9519 16.6526C31.0287 16.609 31.1133 16.5812 31.2009 16.5708C31.378 16.5423 31.5592 16.585 31.7049 16.6896C31.8506 16.7941 31.9491 16.952 31.9789 17.1289C32.5737 21.0194 34.9612 23.8436 37.6553 23.8436C40.8642 23.8436 43.4745 19.9841 43.4745 15.2407C43.4745 10.4973 40.8642 6.63774 37.6553 6.63774C34.9605 6.63774 32.5745 9.46127 31.9789 13.3524C31.9486 13.5291 31.85 13.6866 31.7044 13.7911C31.5588 13.8955 31.3779 13.9384 31.2009 13.9105C31.1133 13.9001 31.0287 13.8723 30.9519 13.8288C30.8752 13.7852 30.808 13.7267 30.7542 13.6567C30.7004 13.5868 30.6612 13.5068 30.6388 13.4214C30.6164 13.3361 30.6112 13.2471 30.6237 13.1598C31.3303 8.54142 34.2215 5.31495 37.6546 5.31495C41.6186 5.31495 44.8428 9.76789 44.8428 15.2414V15.2399Z" fill="black"/>
<path d="M25.2355 36.689C26.0464 36.689 26.7039 35.736 26.7039 34.5603C26.7039 33.3847 26.0464 32.4316 25.2355 32.4316C24.4245 32.4316 23.7671 33.3847 23.7671 34.5603C23.7671 35.736 24.4245 36.689 25.2355 36.689Z" fill="#35A893"/>
<path d="M40.99 17.4614C41.5369 17.7789 41.5508 18.7266 41.0216 19.5787C40.4924 20.4307 39.6194 20.8627 39.0725 20.5452C38.5256 20.2276 38.5121 19.2793 39.0415 18.4283C39.571 17.5772 40.4411 17.147 40.99 17.4614Z" fill="#35A893"/>
<path d="M37.093 8.91451C37.6399 9.23203 37.6538 10.1797 37.1246 11.0318C36.5954 11.8839 35.7225 12.3158 35.1755 11.9983C34.6286 11.6808 34.6151 10.7325 35.1446 9.88138C35.674 9.0303 36.5442 8.60014 37.093 8.91451Z" fill="#35A893"/>
<path d="M12.1468 21.494C11.6655 21.8986 10.7287 21.6186 10.0543 20.8682C9.37984 20.1178 9.22393 19.1827 9.70573 18.7787C10.1875 18.3747 11.1238 18.6541 11.7983 19.4045C12.4727 20.1549 12.631 21.0928 12.1468 21.494Z" fill="#35A893"/>
<path d="M14.8079 11.3592C14.3266 11.7638 13.3898 11.4839 12.7154 10.7334C12.041 9.98299 11.8851 9.04795 12.3669 8.64393C12.8487 8.23992 13.785 8.51931 14.4594 9.26974C15.1338 10.0202 15.2922 10.958 14.8079 11.3592Z" fill="#35A893"/>
</g>
<defs>
<clipPath id="clip0_2184_21591">
<rect width="50" height="50" fill="white" transform="translate(-0.0100098 0.166016)"/>
</clipPath>
</defs>
</svg>
