<svg width="85" height="81" viewBox="0 0 85 81" fill="none" xmlns="http://www.w3.org/2000/svg">
<path d="M55 0.5C45.0267 0.5 35.7867 2.99333 27.28 7.98C18.9933 12.8933 12.3933 19.4933 7.48 27.78C2.49333 36.2867 0 45.5267 0 55.5C0 65.4733 2.49333 74.7133 7.48 83.22C12.3933 91.5067 18.9933 98.1067 27.28 103.02C35.7867 108.007 45.0267 110.5 55 110.5C64.9733 110.5 74.2133 108.007 82.72 103.02C91.0067 98.1067 97.6067 91.5067 102.52 83.22C107.507 74.7133 110 65.4733 110 55.5C110 45.5267 107.507 36.2867 102.52 27.78C97.6067 19.4933 91.0067 12.8933 82.72 7.98C74.2133 2.99333 64.9733 0.5 55 0.5ZM54.67 91.8C48.07 91.8 41.9833 90.15 36.41 86.85C30.91 83.6233 26.5467 79.26 23.32 73.76C20.02 68.1867 18.37 62.1 18.37 55.5C18.37 48.9 20.02 42.8133 23.32 37.24C26.5467 31.74 30.91 27.3767 36.41 24.15C41.9833 20.85 48.07 19.2 54.67 19.2C61.27 19.2 67.3933 20.85 73.04 24.15C78.54 27.3767 82.9033 31.74 86.13 37.24C89.43 42.8133 91.08 48.9 91.08 55.5C91.08 62.1 89.43 68.1867 86.13 73.76C82.9033 79.26 78.54 83.6233 73.04 86.85C67.3933 90.15 61.27 91.8 54.67 91.8ZM62.92 50.44V31.3C62.92 29.54 62.2967 28.0183 61.05 26.735C59.8033 25.4517 58.3 24.81 56.54 24.81H53.46C51.7 24.81 50.1967 25.4517 48.95 26.735C47.7033 28.0183 47.08 29.54 47.08 31.3V54.4C47.08 55.5733 47.3733 56.655 47.96 57.645C48.5467 58.635 49.3533 59.4233 50.38 60.01V60.12C50.5267 60.4133 50.71 60.6333 50.93 60.78L67.32 77.17C68.5667 78.4167 70.07 79.04 71.83 79.04C73.59 79.04 75.0933 78.4167 76.34 77.17L78.43 75.08C79.6767 73.8333 80.3 72.3117 80.3 70.515C80.3 68.7183 79.6767 67.2333 78.43 66.06L62.92 50.44Z" fill="white"/>
</svg>
